<svg width="48" height="48" viewBox="0 0 48 48" fill="none" xmlns="http://www.w3.org/2000/svg">
<path d="M23.9996 9.5C27.5396 9.5 30.7096 10.72 33.2096 13.1L40.0596 6.25C35.8996 2.38 30.4696 0 23.9996 0C14.6196 0 6.50957 5.38 2.55957 13.22L10.5396 19.41C12.4296 13.72 17.7396 9.5 23.9996 9.5Z" fill="#EA4335"/>
<path d="M46.98 24.55C46.98 22.98 46.83 21.46 46.6 20H24V29.02H36.94C36.36 31.98 34.68 34.5 32.16 36.2L39.89 42.2C44.4 38.02 46.98 31.84 46.98 24.55Z" fill="#4285F4"/>
<path d="M10.53 28.59C10.05 27.14 9.77 25.6 9.77 24C9.77 22.4 10.04 20.86 10.53 19.41L2.55 13.22C0.92 16.46 0 20.12 0 24C0 27.88 0.92 31.54 2.56 34.78L10.53 28.59Z" fill="#FBBC05"/>
<path d="M23.9998 48C30.4798 48 35.9298 45.87 39.8898 42.19L32.1598 36.19C30.0098 37.64 27.2398 38.49 23.9998 38.49C17.7398 38.49 12.4298 34.27 10.5298 28.58L2.5498 34.77C6.5098 42.62 14.6198 48 23.9998 48Z" fill="#34A853"/>
</svg>
