<?xml version="1.0" standalone="no"?>
<!DOCTYPE svg PUBLIC "-//W3C//DTD SVG 1.1//EN" "http://www.w3.org/Graphics/SVG/1.1/DTD/svg11.dtd" >
<svg xmlns="http://www.w3.org/2000/svg">
<metadata>Generated by IcoMoon</metadata>
<defs>
<font id="mondo-icon" horiz-adv-x="1024">
<font-face units-per-em="1024" ascent="960" descent="-64" />
<missing-glyph horiz-adv-x="1024" />
<glyph unicode="&#x20;" horiz-adv-x="512" d="" />
<glyph unicode="&#xe900;" glyph-name="filter" d="M883.161 857.6h-742.317c-34.109 0-51.32-41.386-27.152-65.554l295.907-295.952v-329.694c0-12.529 6.113-24.272 16.379-31.459l128-89.568c25.253-17.677 60.421 0.238 60.421 31.459v419.262l295.915 295.952c24.118 24.12 7.026 65.554-27.154 65.554z" />
<glyph unicode="&#xe901;" glyph-name="angle-down" d="M872.579 680.349l44.818-44.818c7.998-7.998 7.998-20.965 0-28.963l-390.916-390.916c-2.999-2.999-6.697-4.874-10.57-5.624l-3.912-0.375c-5.241 0-10.483 1.999-14.482 5.998l-390.916 390.916c-7.998 7.998-7.998 20.965 0 28.963l44.818 44.818c7.998 7.998 20.965 7.998 28.963 0l331.612-331.614 331.619 331.614c7.998 7.998 20.965 7.998 28.963 0z" />
<glyph unicode="&#xe902;" glyph-name="angle-right" d="M279.651 808.579l44.818 44.818c7.998 7.998 20.965 7.998 28.963 0l390.916-390.916c2.999-2.999 4.874-6.697 5.624-10.57l0.375-3.912c0-5.241-1.999-10.483-5.998-14.482l-390.916-390.916c-7.998-7.998-20.965-7.998-28.963 0l-44.818 44.818c-7.998 7.998-7.998 20.965 0 28.963l331.614 331.612-331.614 331.619c-7.998 7.998-7.998 20.965 0 28.963z" />
<glyph unicode="&#xe903;" glyph-name="crosshair" d="M912 473.6h-55.346c-12.482 170.461-148.594 306.573-319.054 319.054v55.346c0 5.302-4.298 9.6-9.6 9.6h-32c-5.302 0-9.6-4.298-9.6-9.6v-55.346c-170.461-12.482-306.573-148.594-319.054-319.054h-55.346c-5.302 0-9.6-4.298-9.6-9.6v-32c0-5.302 4.298-9.6 9.6-9.6h55.346c12.482-170.461 148.594-306.573 319.054-319.054v-55.346c0-5.302 4.298-9.6 9.6-9.6h32c5.302 0 9.6 4.298 9.6 9.6v55.346c170.461 12.482 306.573 148.594 319.054 319.054h55.346c5.302 0 9.6 4.298 9.6 9.6v32c0 5.302-4.298 9.6-9.6 9.6zM537.6 154.712v104.488c0 5.302-4.298 9.6-9.6 9.6h-32c-5.302 0-9.6-4.298-9.6-9.6v-104.488c-141.949 12.15-255.496 125.238-267.688 267.688h104.488c5.302 0 9.6 4.298 9.6 9.6v32c0 5.302-4.298 9.6-9.6 9.6h-104.488c12.15 141.949 125.238 255.494 267.688 267.688v-104.488c0-5.302 4.298-9.6 9.6-9.6h32c5.302 0 9.6 4.298 9.6 9.6v104.488c141.949-12.15 255.496-125.238 267.688-267.688h-104.488c-5.302 0-9.6-4.298-9.6-9.6v-32c0-5.302 4.298-9.6 9.6-9.6h104.488c-12.15-141.949-125.238-255.494-267.688-267.688zM550.4 448c0-21.208-17.192-38.4-38.4-38.4s-38.4 17.192-38.4 38.4c0 21.208 17.192 38.4 38.4 38.4s38.4-17.192 38.4-38.4z" />
<glyph unicode="&#xe904;" glyph-name="ellipsis-h" d="M610.304 448c0-54.272-44.032-98.304-98.304-98.304s-98.304 44.032-98.304 98.304c0 54.272 44.032 98.304 98.304 98.304s98.304-44.032 98.304-98.304zM823.296 546.304c-54.272 0-98.304-44.032-98.304-98.304s44.032-98.304 98.304-98.304c54.272 0 98.304 44.032 98.304 98.304s-44.032 98.304-98.304 98.304zM200.704 546.304c-54.272 0-98.304-44.032-98.304-98.304s44.032-98.304 98.304-98.304c54.272 0 98.304 44.032 98.304 98.304s-44.032 98.304-98.304 98.304z" />
<glyph unicode="&#xe905;" glyph-name="ellipsis-v" d="M512 546.304c54.272 0 98.304-44.032 98.304-98.304s-44.032-98.304-98.304-98.304c-54.272 0-98.304 44.032-98.304 98.304s44.032 98.304 98.304 98.304zM413.696 759.296c0-54.272 44.032-98.304 98.304-98.304s98.304 44.032 98.304 98.304c0 54.272-44.032 98.304-98.304 98.304s-98.304-44.032-98.304-98.304zM413.696 136.704c0-54.272 44.032-98.304 98.304-98.304s98.304 44.032 98.304 98.304c0 54.272-44.032 98.304-98.304 98.304s-98.304-44.032-98.304-98.304z" />
<glyph unicode="&#xe906;" glyph-name="hamburger" d="M899.657 689.371h-775.314c-12.118 0-21.943 9.825-21.943 21.943v58.514c0 12.118 9.825 21.943 21.943 21.943h775.314c12.118 0 21.943-9.825 21.943-21.943v-58.514c0-12.118-9.825-21.943-21.943-21.943zM899.657 396.8h-775.314c-12.118 0-21.943 9.825-21.943 21.943v58.514c0 12.118 9.825 21.943 21.943 21.943h775.314c12.118 0 21.943-9.825 21.943-21.943v-58.514c0-12.118-9.825-21.943-21.943-21.943zM899.657 104.229h-775.314c-12.118 0-21.943 9.825-21.943 21.943v58.514c0 12.118 9.825 21.943 21.943 21.943h775.314c12.118 0 21.943-9.825 21.943-21.943v-58.514c0-12.118-9.825-21.943-21.943-21.943z" />
<glyph unicode="&#xe907;" glyph-name="image" d="M844.8 755.2h-665.6c-42.416 0-76.8-34.384-76.8-76.8v-460.8c0-42.416 34.384-76.8 76.8-76.8h665.6c42.416 0 76.8 34.384 76.8 76.8v460.8c0 42.416-34.384 76.8-76.8 76.8zM835.2 217.6h-646.4c-5.302 0-9.6 4.298-9.6 9.6v441.6c0 5.302 4.298 9.6 9.6 9.6h646.4c5.302 0 9.6-4.298 9.6-9.6v-441.6c0-5.302-4.298-9.6-9.6-9.6v0zM307.2 614.4c-35.346 0-64-28.654-64-64s28.654-64 64-64c35.346 0 64 28.654 64 64s-28.654 64-64 64zM256 294.4h512v128l-140.024 140.024c-7.498 7.498-19.654 7.498-27.154 0l-191.222-191.224-63.224 63.224c-7.498 7.498-19.654 7.498-27.154 0l-63.222-63.224v-76.8z" />
<glyph unicode="&#xe908;" glyph-name="times" d="M870.694 851.591l44.897-44.897c8.012-8.012 8.012-21.002 0-29.014l-329.685-329.678 329.685-329.682c8.012-8.012 8.012-21.002 0-29.014l-44.897-44.897c-8.012-8.012-21.002-8.012-29.014 0l-329.682 329.685-329.678-329.685c-8.012-8.012-21.002-8.012-29.014 0l-44.897 44.897c-8.012 8.012-8.012 21.002 0 29.014l329.681 329.682-329.681 329.678c-8.012 8.012-8.012 21.002 0 29.014l44.897 44.897c8.012 8.012 21.002 8.012 29.014 0l329.678-329.681 329.682 329.681c8.012 8.012 21.002 8.012 29.014 0z" />
<glyph unicode="&#xe909;" glyph-name="wave-a-frame" d="M902.082 322.706l-1.66-4.999-0.114-0.4c-2.331-6.928-4.842-13.774-7.528-20.531l-5.098-12.203c-11.214-25.778-25.007-50.157-41.046-72.833l-6.699-9.188c-7.158-9.556-14.725-18.784-22.673-27.663l-9.179-9.917-6.648-6.798-7.309-7.118-4.909-4.592-7.087-6.368c-5.325-4.677-10.777-9.221-16.349-13.625l-9.994-7.653-15.452-10.921-7.057-4.642-7.045-4.431-6.083-3.668-11.221-6.397-6.644-3.57-5.666-2.922-9.453-4.629-12.805-5.799-8.205-3.441c-47.602-19.348-99.637-30-154.159-30-50.628 0-99.111 9.185-143.873 25.981l-10.286 4.020-4.866 2.015-18.018 8.118-7.58 3.736-8.995 4.691-8.383 4.632-6.149 3.564-13.129 8.099-12.966 8.693-9.545 6.871-1.541 1.149c-8.254 6.183-16.26 12.665-24.010 19.435l-8.095 7.262-6.442 6.064-4.496 4.39-4.534 4.566-5.817 6.073-9.284 10.231c-4.636 5.284-9.135 10.685-13.494 16.199l-9.665 12.726-8.001 11.371-2.61 3.894-4.437 6.849-6.766 11.059c-2.528 4.284-4.978 8.612-7.351 12.988l-3.123 5.875c-2.907 5.578-5.691 11.233-8.346 16.959l-4.818 10.8-2.87 6.865-5.28 13.661 1.158-3.125c-1.828 4.871-3.566 9.786-5.211 14.742l-2.3 7.15-2.826 9.473c-1.518 5.326-2.931 10.693-4.236 16.101l-1.958 8.516c-6.193 28.318-9.456 57.732-9.456 87.908 0 226.216 183.384 409.6 409.6 409.6s409.6-183.384 409.6-409.6c0-43.701-6.844-85.803-19.518-125.294zM512 810.789c-200.363 0-362.789-162.426-362.789-362.789 0-49.115 9.76-95.951 27.446-138.673 39.438-30.333 75.889-29.692 102.507-21.608l5.525 1.828 5.212 2.003 2.484 1.051 4.715 2.171 6.411 3.331 3.812 2.197 4.988 3.133 5.21 3.609c6.549 4.763 12.176 9.649 17.007 14.625l-0.028 0.915 0.927 0.021c27.082 28.54 28.346 59.943 27.385 88.008-1.726 50.405-39.090 98.114-93.676 97.76-14.314-0.093-26.945-2.123-37.888-6.311l-5.86-2.457c-1.277-0.435-2.646-0.672-4.071-0.672-6.963 0-12.608 5.645-12.608 12.608 0 2.087 0.507 4.055 1.408 5.789l3.868 6.143c27.99 42.68 71.421 64.020 130.29 64.020 72.936 0 120.693-39.777 159.773-88.505l7.967-10.199 7.962 10.199c39.055 48.728 86.812 88.505 159.748 88.505 56.417 0 98.654-19.599 126.711-58.797l3.579-5.224 3.868-6.143c0.901-1.734 1.408-3.702 1.408-5.789 0-6.963-5.645-12.608-12.608-12.608l-2.091 0.173-1.98 0.499-5.86 2.457c-10.943 4.188-23.574 6.219-37.888 6.311-54.586 0.354-91.95-47.354-93.676-97.76-0.961-28.065 0.304-59.468 27.385-88.008l0.927-0.021-0.028-0.915c3.623-3.732 7.694-7.413 12.266-11.030l5.883-4.417 4.067-2.786 4.988-3.133 3.812-2.197 4.184-2.224 4.542-2.201 2.4-1.076 6.363-2.568 6.858-2.315c26.621-8.085 63.077-8.725 102.493 21.583 17.7 42.747 27.46 89.583 27.46 138.698 0 200.363-162.426 362.789-362.789 362.789z" />
<glyph unicode="&#xe90a;" glyph-name="wave-left" d="M512 38.4l-8.678 0.090-7.196 0.212-10.958 0.563-11.548 0.91-13.296 1.454-12 1.691-12.69 2.186-9.812 1.975-15.623 3.669-8.855 2.372c-6.322 1.769-12.592 3.69-18.797 5.755l-7.244 2.487-12.069 4.488-11.587 4.725-9.297 4.097-9.156 4.31c-3.921 1.905-7.803 3.87-11.65 5.893l-10.562 5.758-9.178 5.337-6.976 4.275-10.063 6.511-7.164 4.897-9.357 6.739c-6.116 4.535-12.103 9.239-17.954 14.103l-11.41 9.849c-3.241 2.899-6.43 5.847-9.571 8.844-4.95 4.726-9.782 9.571-14.49 14.534l-4.23 4.521-5.61 6.224-4.608 5.299-5.735 6.873c-3.026 3.696-5.976 7.439-8.863 11.235-2.993 3.946-5.915 7.936-8.766 11.98l-4.861 7.040-6.809 10.45c-3.381 5.349-6.637 10.78-9.767 16.291l-5.441 9.897-5.462 10.642-5.157 10.82c-23.827 51.939-37.111 109.72-37.111 170.604 0 226.216 183.384 409.6 409.6 409.6s409.6-183.384 409.6-409.6c0-68.192-16.664-132.493-46.143-189.051l-5.147-9.563-8.159-14.025c-2.358-3.874-4.778-7.706-7.26-11.495l-5.717-8.495-4.395-6.234-6.249-8.461-4.873-6.296-8.58-10.506-1.589-1.871c-3.085-3.609-6.232-7.164-9.439-10.664l-4.081-4.389-9.056-9.3-8.028-7.775c-8.486-7.998-17.314-15.638-26.459-22.896l-10.888-8.349-11.736-8.377-3.464-2.356c-4.76-3.202-9.599-6.312-14.507-9.322l-8.259-4.933-10.472-5.884-10.623-5.565-4.271-2.127-7.019-3.362-10.083-4.545-6.045-2.569-6.363-2.581-10.378-3.945-6.909-2.449-10.804-3.552-13.831-4.065-6.681-1.775-12.288-2.95-8.143-1.734-7.916-1.52-5.041-0.884-8.009-1.271-15.37-1.987-15.549-1.414-7.85-0.489-10.931-0.432-10.996-0.145zM512 810.789c-200.363 0-362.789-162.426-362.789-362.789 0-59.069 14.117-114.841 39.161-164.126 64.174-79.944 128.927-90.988 177.050-82.425l3.764 0.716 7.254 1.64 6.96 1.897 3.365 1.032 3.286 1.080 6.328 2.285 3.038 1.195 5.816 2.466 5.456 2.535 5.081 2.561 4.692 2.545 4.287 2.487 5.641 3.53 4.649 3.163 7.022 5.249c46.031 36.036 55.439 76.793 56.423 114.861l0.080 4.555-0.040 9.021-0.234 8.883c-2.361 68.924-53.451 134.16-128.092 133.676-19.574-0.127-36.844-2.903-51.808-8.63l-8.013-3.36c-1.746-0.595-3.619-0.918-5.566-0.918-9.521 0-17.24 7.719-17.24 17.24 0 2.853 0.693 5.545 1.925 7.916l5.289 8.4c38.274 58.361 97.66 87.541 178.158 87.541 97.271 0 161.79-51.739 214.493-116.108l9.182-11.482 4.507-5.825 9.923-13.225 9.699-13.398 9.511-13.503 41.439-60.255 4.557-6.475 9.139-12.718c18.024-24.673 36.42-47.221 56.422-65.34 21.172 46.073 32.97 97.318 32.97 151.317 0 200.363-162.426 362.789-362.789 362.789z" />
<glyph unicode="&#xe90b;" glyph-name="wave-right" d="M691.204 79.579l-5.735-2.738-5.577-2.56-11.28-4.873-12.503-4.938-6.715-2.457-4.695-1.638-10.659-3.485-11.838-3.493-10.832-2.859-7.138-1.711-6.974-1.541-8.361-1.679-8.937-1.595-7.618-1.198-13.571-1.773-14.461-1.385-10.852-0.703-10.604-0.411-10.854-0.141-10.795 0.139-13.215 0.553-12.288 0.894-12.053 1.237-4.488 0.553-12.007 1.728-14.263 2.529-7.712 1.586-7.859 1.778-11.132 2.801-4.791 1.309-7.692 2.234-14.528 4.674-10.467 3.747-6.827 2.62-11.198 4.607c-4.685 2.009-9.327 4.105-13.922 6.283l-5.971 2.89-11.89 6.119-9.871 5.463-8.164 4.792-9.857 6.133-8.398 5.538-5.15 3.545-10.381 7.506-5.639 4.289-6.217 4.911-9.105 7.553-10.519 9.299-4.631 4.302-6.233 6.005-10.268 10.469-1.361 1.445c-6.031 6.435-11.854 13.060-17.46 19.868l-8.943 11.256-3.429 4.538-3.666 5.001-5.201 7.378-3.785 5.595-5.43 8.39-6.756 11.111-2.862 4.959-5.036 9.137c-30.721 57.463-48.141 123.115-48.141 192.835 0 226.216 183.384 409.6 409.6 409.6s409.6-183.384 409.6-409.6c0-88.042-27.777-169.596-75.047-236.376l-4.6-6.369-0.846-1.114c-18.579-25.060-39.963-47.916-63.681-68.115l-9.003-7.449-5.735-4.527-10.896-8.159-4.552-3.24-9.293-6.348-11.162-7.136-6.086-3.686-11.768-6.722-6.079-3.273-11.648-5.909zM188.849 282.941l5.978 4.582c20.909 16.723 39.942 38.424 58.385 62.696l9.361 12.59 4.654 6.44 9.279 13.125 13.917 20.17 23.507 34.309 9.623 13.759 9.805 13.673 10.026 13.516 8.915 11.555c54.126 68.723 120.123 125.657 222.16 125.657 80.498 0 139.884-29.18 178.158-87.541l3.884-6.141c2.098-2.853 3.33-6.37 3.33-10.174 0-9.521-7.719-17.24-17.24-17.24-1.948 0-3.82 0.323-5.566 0.918l-2.509 1.074c-16.185 7.278-35.291 10.774-57.311 10.917-74.641 0.484-125.732-64.752-128.092-133.676l-0.234-8.883-0.040-9.021c0.37-39.354 8.63-81.939 56.503-119.416l7.017-5.25 8.146-5.501 6.084-3.716 6.931-3.854 7.736-3.849 8.499-3.7 6.069-2.314 6.378-2.143c37.424-11.712 89.436-12.882 145.544 32.35 42.216 59.284 67.042 131.817 67.042 210.148 0 200.363-162.426 362.789-362.789 362.789s-362.789-162.426-362.789-362.789c0-56.893 13.096-110.727 36.438-158.653l3.199-6.406z" />
<glyph unicode="&#xe90c;" glyph-name="wave" d="M512 857.6c226.216 0 409.6-183.384 409.6-409.6 0-43.701-6.844-85.803-19.518-125.294l-1.774-5.399c-2.331-6.928-4.842-13.774-7.528-20.531l-5.098-12.203c-11.214-25.778-25.007-50.157-41.046-72.833l-6.699-9.188c-7.158-9.556-14.725-18.784-22.673-27.663l-9.179-9.917-6.648-6.798-7.309-7.118-4.909-4.592-7.087-6.368c-5.325-4.677-10.777-9.221-16.349-13.625l-9.994-7.653-15.452-10.921-7.057-4.642-7.045-4.431-6.083-3.668-11.221-6.397-6.644-3.57-5.666-2.922-9.453-4.629-12.805-5.799-8.205-3.441c-47.602-19.348-99.637-30-154.159-30-50.628 0-99.111 9.185-143.873 25.981l-10.286 4.020-4.866 2.015-18.018 8.118-7.58 3.736-8.995 4.691-8.383 4.632-6.149 3.564-13.129 8.099-12.966 8.693-9.545 6.871-1.541 1.149c-8.254 6.183-16.26 12.665-24.010 19.435l-8.095 7.262-6.442 6.064-4.496 4.39-4.534 4.566-5.817 6.073-9.284 10.231c-4.636 5.284-9.135 10.685-13.494 16.199l-9.665 12.726-8.001 11.371-2.61 3.894-4.437 6.849-6.766 11.059c-2.528 4.284-4.978 8.612-7.351 12.988l-3.123 5.875c-2.907 5.578-5.691 11.233-8.346 16.959l-4.818 10.8-2.87 6.865-4.69 12.095-2.106 5.78-2.537 7.404-2.3 7.15-2.826 9.473c-1.518 5.326-2.931 10.693-4.236 16.101l-1.958 8.516c-6.193 28.318-9.456 57.732-9.456 87.908 0 226.216 183.384 409.6 409.6 409.6zM512 810.789c-200.363 0-362.789-162.426-362.789-362.789 0-22.909 2.123-45.322 6.184-67.053l2.191-10.808 1.735-7.543 1.805-7.158 1.947-7.103 2.503-8.39 2.037-6.332 2.247-6.557 1.423-3.948 4.596-11.884 2.542-6.080 4.267-9.565 3.612-7.56 3.78-7.461 2.766-5.204 3.203-5.783 3.307-5.721 5.993-9.795 3.93-6.066 2.312-3.449 7.086-10.071 8.56-11.272 5.884-7.251 6.068-7.098 8.223-9.062 5.152-5.379 4.016-4.044 3.983-3.889 5.706-5.371 7.17-6.432c4.576-3.997 9.253-7.881 14.029-11.649l8.602-6.582 8.454-6.086 11.485-7.7 11.628-7.174 5.447-3.157 7.425-4.103 7.967-4.155 6.714-3.309 15.959-7.19 4.31-1.785 9.111-3.56c39.646-14.876 82.588-23.011 127.43-23.011 44.577 0 87.276 8.040 126.742 22.755l9.799 3.817 7.267 3.047 11.341 5.136 8.372 4.1 5.018 2.588 5.884 3.162 9.938 5.666 5.388 3.249 6.24 3.925 6.251 4.112 13.686 9.673 8.852 6.778 7.322 5.943 7.158 6.124 6.277 5.64 4.348 4.068 6.473 6.305 5.889 6.021 8.13 8.784c4.693 5.242 9.236 10.623 13.622 16.135l6.46 8.366 5.933 8.138c11.838 16.737 22.295 34.522 31.199 53.198l5.155 11.311 4.515 10.808 3.452 9.035 3.317 9.503 1.471 4.427c11.226 34.977 17.287 72.268 17.287 110.974 0 200.363-162.426 362.789-362.789 362.789z" />
<glyph unicode="&#xe90d;" glyph-name="wetsuit-freeze" d="M415.491 934.4c32.281 0 45.416-27.638 45.416-46.697s-11.392-62.892-5.696-84.435c5.696-21.543 32.718-31.754 52.047-37.591s42.399-3.394 47.317-65.179c4.918-61.785 7.565-83.838 7.565-93.825s7.609-29.579 7.609-60.664c0-31.085-5.453-77.018-2.726-97.376s-1.776-45.899-8.795-54.804c-7.019-8.905-23.111-22.577-27.452-17.961s5.531 37.982 4.785 48.194c-0.745 10.211 7.789 33.149 7.922 41.448s-19.267 79.218-23.377 98.344c-2.74 12.751-7.023 49.067-12.848 108.949-6.87-31.67-9.182-56.061-6.938-73.172 3.367-25.666 15.989-107.568 14.322-134.121s-0.778-153.707-2.557-178.404c-1.78-24.697-3.171-86.357-11.765-117.525s-27.993-77.29-24.252-91.652c3.742-14.362 25.877-56.487 27.959-62.603s-7.23-21.383-15.39-22.077c-8.16-0.694-34.208 33.908-40.838 47.201s-11.941 18.341-7.833 34.146c4.109 15.805 4.867 50.72 4.494 68.491s-7.871 40.671-4.494 54.989c2.251 9.545 4.862 18.794 7.833 27.746-1.261 17.282-2.374 34.333-3.339 51.152s-7.308 59.259-19.031 127.32h-5.424c-4.24-46.708-6.531-74.61-6.875-83.708-0.515-13.647 6.553-49.466 4.122-61.778s-9.354-29.258-7.092-37.376c2.262-8.118 4.436-49.338 2.97-81.204s4.091-81.476 4.122-91.556c0.030-10.080 4.411-16.132 2.753-20.856s-12.801-41.349-17.369-47.325c-4.569-5.975-15.212-21.307-19.596-18.567s-22.307 5.097-22.058 11.765c0.249 6.668 19.833 34.193 22.058 50.188s3.247 24.202 0 43.787c-3.247 19.584-20.027 91.536-24.672 105.852s-0.086 66.076 2.614 76.757c2.7 10.681-7.742 63.476-15.088 86.725s-15.771 103.789-11.436 134.189c4.335 30.4 16.736 106.283 17.966 121.584 0.82 10.201-3.215 36.878-12.105 80.031-6.083-0.568-9.124-4.704-9.124-12.407 0-11.556-10.681-44.791-12.788-74.849s-16.39-111.276-17.417-120.037c-1.027-8.761-5.255-15.533 0-24.436s8.396-34.049 7.067-42.994c-1.329-8.945-1.591-14.653 2.922-18.056s4.612-15.573-2.922-11.586c-7.534 3.987-31.193 20.698-31.054 35.857s3.339 39.102 0 63.668c-3.339 24.566-11.263 75.725-8.327 93.306s9.593 83.902 12.187 99.127c2.593 15.225 7.495 66.24 23.569 81.375s56.932 24.761 64.082 32.151c7.15 7.39 20.552 18.693 18.776 37.745s-14.375 59.415-12.915 72.565c1.46 13.151 8.833 50.167 41.114 50.167zM844.679 263.22l-161.135 92.889-161.135-92.889v-185.813l161.135-92.889 161.135 92.889v185.813zM683.52 326.605l135.526-78.182v-156.211l-135.526-78.131-135.526 78.131v156.211l135.526 78.182zM802.633 142.767l-7.513 17.808-43.406-18.364-25.042 14.469v27.268l25.042 14.469 43.406-18.364 7.513 17.808-30.051 12.799 30.329 17.529-9.739 16.695-30.329-17.529 3.895 32.276-19.199 2.504-5.565-47.023-25.042-14.469-23.651 13.634v28.938l37.563 28.381-11.408 15.582-26.155-19.755v35.059h-19.477v-35.059l-26.155 19.755-11.408-15.582 37.841-28.381v-28.938l-23.929-13.634-25.042 14.469-5.565 47.023-19.199-2.226 3.895-32.276-30.329 17.529-9.739-16.695 30.329-17.808-30.051-12.799 7.513-17.808 43.406 18.364 25.042-14.469v-27.268l-25.042-14.469-43.406 18.364-7.513-17.808 30.051-12.799-30.329-17.251 9.739-16.695 30.329 17.529-3.895-32.276 19.199-2.782 5.565 47.023 25.042 14.469 23.651-13.634v-28.938l-37.563-28.381 11.686-15.582 26.155 19.755v-35.059h19.477v35.059l26.155-19.755 11.686 15.582-38.12 28.381v28.938l23.651 13.634 25.042-14.469 5.565-47.023 19.199 2.226-3.895 32.276 30.329-17.529 9.739 16.695-30.329 17.808 30.051 12.799zM707.195 156.68l-23.651-13.634-23.651 13.634v27.268l23.651 13.634 23.651-13.634v-27.268z" />
<glyph unicode="&#xe90e;" glyph-name="springsuit" d="M591.928 883.2c11.33-14.635 28.364-25.588 46.39-33.99l2.464-1.13c3.292-1.486 6.61-2.889 9.925-4.216l2.485-0.981 2.482-0.953 1.239-0.466 2.471-0.913c0.822-0.3 1.643-0.595 2.461-0.887l2.448-0.861 3.642-1.245 2.404-0.8 3.564-1.156 2.344-0.743 2.315-0.721 3.412-1.042c3.328-1.005 6.712-1.884 10.124-2.735l6.071-1.498 3.002-0.753 1.975-0.51 1.975-0.526c0.658-0.179 1.315-0.361 1.972-0.547l1.969-0.572c29.834-8.876 58.1-27.669 65.48-120.373l1.41-17.555 1.861-22.695 1.728-20.601 1.809-21.122 5.378-61.281c-19.846-7.303-42.383-9.422-61.942-8.953l-2.332 0.069c-0.772 0.027-1.54 0.058-2.302 0.092l-2.269 0.115-2.234 0.137c-0.738 0.049-1.471 0.102-2.196 0.158l-3.22 0.274-2.094 0.206-2.049 0.223-2.002 0.239-0.983 0.126-1.927 0.262c-0.317 0.045-0.632 0.090-0.944 0.136l-2.75 0.429-1.763 0.301-1.704 0.312-1.643 0.322-0.798 0.164-0.922 8.604-1.987 18.976-2.067 20.203-2.636 26.359-1.992 20.321-0.864-4.021-0.839-3.98-0.813-3.94-0.788-3.899-0.763-3.859-0.737-3.819-0.712-3.778-0.687-3.738-0.662-3.697-0.636-3.657-0.309-1.813-0.598-3.597-0.573-3.556-0.548-3.516-0.523-3.475-0.497-3.435-0.239-1.702-0.459-3.374-0.22-1.672-0.421-3.314-0.201-1.642-0.566-4.865-0.346-3.193-0.163-1.581-0.308-3.132-0.282-3.092-0.257-3.051-0.232-3.011-0.207-2.971-0.181-2.93c-0.028-0.485-0.055-0.968-0.081-1.45l-0.143-2.87c-0.022-0.475-0.043-0.948-0.062-1.42l-0.105-2.809c-0.062-1.859-0.107-3.692-0.135-5.497l-0.030-2.688-0.004-2.648c0.003-0.876 0.010-1.745 0.021-2.607l0.046-2.567 0.072-2.526c0.224-6.683 0.718-12.936 1.482-18.757l0.874-6.54 1.599-11.606 5.915-42.29 1.585-11.476 2.031-14.907 1.232-9.181 0.822-6.197 1.229-9.385 1.217-9.461 0.801-6.331 0.791-6.339 1.161-9.499 0.754-6.311 0.736-6.282 1.064-9.345 0.68-6.163 0.813-7.609 0.768-7.486 0.293-2.955 0.562-5.836 0.527-5.728 0.539-6.199 0.252-3.041 0.465-5.955 0.213-2.911 0.199-2.864 0.273-4.204 0.164-2.739 0.149-2.686 0.133-2.631 0.17-3.839 0.093-2.486 0.077-2.425 0.060-2.362 0.057-3.421 0.016-2.197-0.011-3.165-0.031-2.021-0.023-0.983-0.060-1.91-0.080-1.834-0.267-4.703-0.085-1.706-0.202-4.684-0.151-4.164-0.152-4.853-0.142-5.239-0.133-5.607-0.124-5.955-0.115-6.285-0.159-10.003-0.097-7.024-0.133-11.023-0.12-11.55-0.142-16.107-0.125-16.776-0.165-26.085-0.437-77.074c-30.77-11.813-67.654-11.727-99.496-7.567l-3.065 0.415-3.232 0.469-1.601 0.244-3.17 0.506c-4.197 0.69-8.273 1.44-12.2 2.229l-2.917 0.599-2.858 0.611-2.796 0.622c-0.922 0.209-1.832 0.42-2.732 0.631l-2.665 0.638c-0.877 0.214-1.742 0.428-2.595 0.644l-2.523 0.647-2.448 0.648-2.37 0.648-2.289 0.645-2.206 0.641-2.119 0.634-2.031 0.626-0.981 0.309-1.971 12.048-2.824 17.040-2.982 17.792-3.14 18.544-3.298 19.296-1.363 7.929h-10.612l-2.921-32.425-3.038-34.392-2.4-27.955-1.003-12.148c-11.591-5.811-29.289-7.18-48.951-5.998l-2.468 0.161c-0.826 0.058-1.655 0.12-2.486 0.187l-2.552 0.216-1.282 0.117-2.575 0.253c-0.861 0.088-1.723 0.181-2.588 0.277l-2.599 0.3c-0.868 0.104-1.737 0.211-2.608 0.322l-2.615 0.343-2.62 0.363-2.623 0.383-2.624 0.401-3.279 0.526-3.275 0.552c-1.090 0.188-2.179 0.38-3.266 0.576l-3.254 0.599-4.045 0.777-4.013 0.807c-0.533 0.109-1.064 0.219-1.595 0.33l-3.169 0.672-3.138 0.686-3.103 0.698-3.065 0.708-3.023 0.717-2.978 0.725-4.373 1.096-2.847 0.735-2.789 0.736-2.726 0.736-3.964 1.099-2.554 0.727-2.479 0.721-2.4 0.713-0.903 5.268-0.67 4.059-0.664 4.157-0.657 4.25-0.649 4.337-0.428 2.938-0.635 4.472-0.626 4.546-0.412 3.069-0.761 5.844c-0.752 5.892-1.477 11.922-2.17 18.045l-0.682 6.153-0.659 6.205c-0.593 5.709-1.156 11.47-1.684 17.25l-0.541 6.074-0.514 6.078-0.414 5.144-0.264 3.425-0.379 5.126-0.357 5.108-0.334 5.085-0.21 3.374-0.295 5.034-0.355 6.652-0.236 4.937-0.143 3.263-0.131 3.239-0.174 4.81-0.101 3.171-0.127 4.701-0.069 3.094-0.056 3.060-0.058 4.523-0.022 2.968-0.008 2.928 0.014 4.315 0.027 2.822 0.042 2.777 0.057 2.73 0.113 4.004 0.095 2.606 0.11 2.554 0.126 2.499 0.142 2.444 0.158 2.386 0.174 2.327 0.241 2.824 0.267 2.726 0.114 1.062 0.242 2.075c0.125 1.021 0.257 2.017 0.395 2.986l1.436 9.908 2.331 15.636 4.777 31.287 12.296 79.607 3.391 22.236 2.228 14.805 2.344 15.847 1.687 11.684 1.764 12.641 1.097 8.263 0.516 4.089 0.362 2.996 0.315 2.739 0.324 3.047 0.156 1.619 0.126 1.457 0.085 1.236c0.037 0.637 0.065 1.304 0.085 1.999l0.028 1.429c0.008 0.734 0.008 1.497-0.001 2.289l-0.029 1.623-0.052 1.7-0.075 1.778-0.098 1.855-0.12 1.932-0.143 2.010-0.166 2.087-0.189 2.164-0.211 2.242-0.234 2.319-0.257 2.396-0.28 2.474-0.303 2.551-0.497 3.972-0.36 2.745-0.382 2.822-0.405 2.899-0.428 2.977-0.451 3.054-0.474 3.131-0.753 4.842-0.531 3.325-0.839 5.132-0.588 3.518-1.244 7.268-1.335 7.578-1.061 5.886-1.112 6.061-1.164 6.235-1.215 6.409-1.266 6.583-1.768 9.048-1.386 6.989-1.927 9.589-2.538 12.422c-11.701-1.092-17.65-8.934-17.845-23.525l-0.005-0.748c0-3.391-0.47-7.736-1.283-12.872l-0.343-2.096-0.185-1.079-0.395-2.218-0.427-2.296-0.457-2.373-0.486-2.446-0.512-2.518-1.087-5.185c-28.161-4.308-53.234 1.584-74.634 10.743l-2.059 0.896c-3.072 1.359-6.066 2.782-8.981 4.248l-1.931 0.984c-0.32 0.165-0.639 0.33-0.957 0.496l-1.896 1-1.872 1.009-1.848 1.017c-0.306 0.17-0.611 0.34-0.915 0.511l0.53 3.88 0.574 3.937 0.358 2.312 0.647 3.919 0.322 2.031 0.506 3.335 0.537 3.66 2.279 15.834 0.968 6.547 1.053 6.883 0.85 5.35 0.597 3.643 0.942 5.564 0.661 3.765 0.688 3.802c0.234 1.273 0.472 2.55 0.716 3.832l0.744 3.855 0.497 2.504 0.77 3.765 0.529 2.513 0.542 2.514 0.839 3.768 0.576 2.507 0.59 2.501 0.604 2.494 0.619 2.484 0.634 2.473 0.322 1.232 0.656 2.453 0.671 2.437 0.341 1.212 0.87 3.009 0.895 2.976 0.734 2.355 0.75 2.33c0.253 0.772 0.509 1.54 0.767 2.304l0.784 2.275 0.801 2.245c5.666 15.601 12.598 28.832 21.144 36.879 8.615 8.112 20.869 15.415 34.409 22.040l2.636 1.274c0.884 0.422 1.772 0.841 2.664 1.257l2.689 1.241 2.71 1.224 2.727 1.208 2.74 1.193 3.111 1.331 1.558 0.658 3.119 1.301 3.117 1.282 4.661 1.887 3.089 1.235 4.593 1.819 16.136 6.335 4.127 1.641 2.668 1.075 2.595 1.060 2.516 1.045 3.027 1.285 2.885 1.263 1.677 0.756 1.618 0.748 1.557 0.74 2.216 1.096 1.394 0.722c4.078 2.154 7.218 4.209 9.128 6.184l0.736 0.757 1.533 1.555 4.99 5.019 1.759 1.797c6.216 6.403 12.992 14.002 18.325 23.157 23.145-5.103 47.804-7.856 73.391-7.856 28.279 0 55.424 3.363 80.649 9.543z" />
<glyph unicode="&#xe90f;" glyph-name="swimsuit" d="M315.204 740.169c69.788 18.987 147.168 13.209 196.728 13.522s138.737 7.263 197.74-11.555c13.96-56.992 53.432-210.557 53.124-271.401s13.556-269.461 17.186-302.043c-55.681-15.847-71.426-20.393-111.269-19.763s-84.826-0.62-121.12 0c-5.95 52.17-14.775 148.836-17.533 173.972-1.839 16.757-4.24 33.739-7.205 50.943l-10.923 9.316-13.262-15.921c1.3-124.83 1.3-197.601 0-218.311-44.745-5.272-83.812-10.18-134.931-7.253s-91.921 12.552-119.723 27.016c4.952 47.345 6.191 167.712 13.318 255.052s12.152 167.395 27.787 225.977c15.635 58.582 12.074 47.349 30.082 90.447z" />
<glyph unicode="&#xe910;" glyph-name="wetsuit-full" d="M567.501 934.4c7.592-9.807 19.006-17.146 31.085-22.776l1.651-0.757c2.206-0.996 4.429-1.936 6.651-2.825l1.665-0.658 1.663-0.639 0.83-0.313 1.656-0.612c0.551-0.201 1.101-0.399 1.649-0.594l1.64-0.577 2.441-0.834 1.611-0.536 2.388-0.775 1.571-0.498 1.551-0.483 2.287-0.698c2.23-0.673 4.498-1.263 6.784-1.833l4.068-1.004 2.012-0.504 1.324-0.342 1.323-0.353c0.441-0.12 0.881-0.242 1.322-0.366l1.319-0.383c19.991-5.948 38.932-18.541 43.877-80.661l0.945-11.763 1.247-15.208 1.158-13.804 1.212-14.154 3.64-41.488 0.6-7.147 0.252-3.167 0.168-2.208 0.241-3.38 0.12-1.858 0.102-1.737 0.107-2.139 0.059-1.478 0.029-0.929 0.028-1.313 0.009-1.222c0-0.786 0.036-1.616 0.103-2.493l0.078-0.892 0.098-0.923 0.056-0.473 0.126-0.969 0.144-1 0.161-1.031 0.177-1.062 0.191-1.094 0.205-1.125 0.218-1.157 0.35-1.795 0.902-4.467 0.845-4.144 0.586-2.925 0.447-2.28 0.449-2.355 0.299-1.611 0.297-1.645 0.295-1.678 0.292-1.712 0.287-1.746 0.352-2.23 0.341-2.283 0.265-1.865 0.129-0.945 0.251-1.916 0.3-2.443 0.282-2.497 0.212-2.037 0.199-2.072 0.184-2.107 0.086-1.067 0.161-2.16c0.382-5.443 0.606-11.216 0.606-17.329 0-3.566-0.055-7.28-0.152-11.108l-0.094-3.308-0.113-3.359c-0.020-0.564-0.041-1.129-0.063-1.697l-0.139-3.426-0.154-3.464-0.167-3.497-0.179-3.525-0.189-3.549-0.197-3.567-0.163-2.863-0.335-5.742-1.067-17.996-0.32-5.649-0.241-4.461-0.223-4.399-0.202-4.325-0.136-3.19-0.12-3.138-0.103-3.082-0.059-2.021-0.050-1.993-0.039-1.984c-10.606-1.918-21.768-1.839-30.368 0.006l-0.049 0.321-0.204 1.203-0.236 1.306-0.363 1.897-0.202 1.012-0.411 1.998-0.454 2.134-0.494 2.263-0.813 3.619-0.586 2.553-0.619 2.656-0.986 4.162-1.048 4.355-1.102 4.522-1.15 4.666-2.411 9.666-2.51 9.949-9.099 35.758-1.485 5.88-1.719 6.873-0.945 3.826-0.59 2.411-0.818 3.39-0.732 3.096-0.437 1.889-0.393 1.74-0.347 1.585-0.187 0.887-0.19 0.941-0.292 1.514-0.3 1.637-0.308 1.759-0.423 2.536-0.437 2.754-0.452 2.972-0.348 2.372-0.38 2.662-0.527 3.816-0.654 4.914-0.794 6.195-0.587 4.73-0.726 6.011-1.005 8.582-1.048 9.232-0.952 8.611-1.416 13.164-1.331 12.715-1.385 13.538-1.766 17.662-1.335 13.617-0.579-2.694-0.562-2.667-0.545-2.64-0.528-2.613-0.511-2.586-0.494-2.559-0.477-2.532-0.46-2.505-0.443-2.478-0.426-2.451-0.207-1.215-0.401-2.41-0.384-2.383-0.367-2.356-0.35-2.329-0.333-2.302-0.16-1.141-0.308-2.261-0.148-1.12-0.282-2.221-0.135-1.1-0.379-3.26-0.232-2.139-0.109-1.060-0.206-2.099-0.189-2.072-0.172-2.045-0.155-2.018-0.138-1.991-0.121-1.964c-0.019-0.325-0.037-0.649-0.054-0.972l-0.096-1.923c-0.015-0.318-0.028-0.635-0.042-0.951l-0.071-1.882c-0.041-1.246-0.072-2.474-0.090-3.683l-0.020-1.801-0.003-1.774c0.002-0.587 0.007-1.169 0.014-1.747l0.031-1.72 0.048-1.693c0.15-4.478 0.481-8.668 0.993-12.569l0.586-4.382 1.071-7.777 3.964-28.338 1.062-7.69 1.361-9.989 0.825-6.152 0.551-4.153 0.823-6.289 0.816-6.339 0.537-4.243 0.53-4.248 0.778-6.365 0.505-4.229 0.493-4.209 0.713-6.262 0.456-4.13 0.545-5.099 0.514-5.016 0.197-1.98 0.376-3.91 0.353-3.838 0.361-4.154 0.169-2.037 0.312-3.99 0.143-1.95 0.134-1.919 0.183-2.817 0.11-1.835 0.1-1.8 0.089-1.763 0.114-2.573 0.063-1.666 0.051-1.625 0.040-1.583 0.038-2.292 0.010-1.472-0.007-2.121-0.021-1.354-0.015-0.659-0.040-1.28-0.053-1.229-0.179-3.151-0.057-1.143-0.135-3.139-0.101-2.79-0.102-3.252-0.095-3.511-0.089-3.757-0.083-3.991-0.077-4.211-0.106-6.703-0.065-4.707-0.089-7.386-0.080-7.739-0.095-10.793-0.084-11.242-0.111-17.479-0.288-50.735-0.098-14.443-0.090-11.148-0.102-10.677-0.086-7.636-0.063-4.89-0.068-4.715-0.072-4.527-0.078-4.326-0.127-6.084-0.092-3.767-0.099-3.522-0.131-3.986-0.106-2.741-0.084-1.892-0.088-1.748-0.107-1.85-0.224-3.259-0.139-2.112-0.277-4.543-0.351-6.234-1.238-23.347-0.45-8.117-0.29-5.007-0.308-5.092-0.326-5.162-0.229-3.474-0.238-3.494-0.248-3.511-0.259-3.523-0.27-3.531-0.139-1.767-0.435-5.303-0.305-3.53c-0.104-1.175-0.21-2.349-0.318-3.521l-0.332-3.508-0.171-1.748-0.353-3.48-0.367-3.456c-0.125-1.148-0.252-2.291-0.382-3.428l-0.398-3.396-0.339-2.77-0.174-1.375-0.356-2.728-0.368-2.697-0.379-2.664c-0.45-3.088-0.924-6.104-1.424-9.031l-0.436-2.486c-1.179-6.57-2.5-12.647-3.984-18.031-0.811-2.942-1.696-5.985-2.637-9.108l-0.96-3.148-0.994-3.195-1.547-4.87-1.063-3.291-1.085-3.321-1.102-3.346-1.678-5.053-5.013-14.998-2.234-6.739-0.949-2.892-1.243-3.826-1.511-4.723-0.879-2.797-0.856-2.764-0.83-2.729-0.802-2.691-0.771-2.649-0.857-3.033-0.583-2.126-0.447-1.675-0.43-1.651-0.412-1.626-0.582-2.39-0.363-1.559-0.342-1.531c-0.221-1.011-0.428-2.002-0.62-2.973l-0.276-1.44-0.252-1.408c-0.681-3.942-1.070-7.484-1.095-10.525-7.32-0.347-16.084 0.496-24.209 2.032l-1.616 0.316-1.595 0.334c-6.334 1.37-12.082 3.142-16.176 5.060 0.174 1.498 0.34 3.031 0.496 4.593l0.228 2.363 0.109 1.197 0.208 2.42 0.195 2.452 0.093 1.237 0.26 3.746 0.159 2.521 0.075 1.266 0.141 2.541 0.13 2.548 0.119 2.551 0.108 2.549 0.098 2.543 0.088 2.532 0.078 2.517 0.069 2.498 0.059 2.474 0.050 2.445 0.041 2.412 0.033 2.374 0.025 2.332 0.017 2.286 0.011 3.332-0.005 3.202-0.012 2.055-0.030 2.951-0.028 1.874-0.034 1.793c-0.136 6.462-0.99 13.442-2.059 20.555l-0.438 2.852-0.454 2.86-1.473 9.138-0.432 2.775-0.277 1.84-0.266 1.83-0.253 1.819-0.238 1.806-0.221 1.792-0.202 1.776c-0.929 8.544-1.124 16.48 0.424 23.042 2.951 12.513 6.374 24.638 10.268 36.373-1.488 20.39-2.818 40.534-3.991 60.433l-0.425 7.295-0.146 2.136-0.118 1.524-0.135 1.605-0.152 1.686-0.169 1.766-0.285 2.801-0.211 1.968-0.349 3.103-0.387 3.284-0.425 3.466-0.463 3.647-0.501 3.828-0.727 5.387-0.59 4.251-0.628 4.433-0.666 4.614-0.947 6.434-0.755 5.037-0.793 5.219-0.831 5.4-0.869 5.582-0.907 5.763-1.596 10.008-1.702 10.512-1.438 8.772-1.893 11.419-1.998 11.922-2.104 12.426-2.21 12.93-0.914 5.313h-7.111l-1.958-21.728-2.035-23.046-1.608-18.733-1.045-12.596-0.593-7.402-0.612-7.958-0.409-5.62-0.326-4.818-0.171-2.766-0.17-3.134-0.085-1.935c-0.031-0.826-0.041-1.715-0.032-2.659l0.020-1.16 0.037-1.211 0.087-1.909 0.077-1.33 0.091-1.374 0.105-1.416 0.181-2.196 0.135-1.509 0.222-2.326 0.16-1.589 0.169-1.616 0.359-3.307 0.383-3.391 1.357-11.63 0.651-5.695 0.361-3.293 0.341-3.258 0.24-2.411 0.223-2.377 0.204-2.336 0.183-2.289 0.109-1.497 0.097-1.471 0.086-1.444 0.073-1.414 0.060-1.383 0.046-1.35 0.031-1.315 0.016-1.279c0.011-1.89-0.032-3.649-0.139-5.25l-0.082-1.044c-0.107-1.189-0.254-2.279-0.447-3.256-0.757-3.832-1.846-8.007-3.026-12.288l-1.081-3.875-0.729-2.596-0.975-3.514-0.364-1.338-0.532-1.995-0.509-1.975-0.324-1.303-0.31-1.29-0.149-0.64-0.286-1.268c-1.428-6.493-2.133-12.316-1.122-16.49l0.111-0.426c0.104-0.372 0.207-0.798 0.311-1.275l0.155-0.752 0.154-0.827 0.175-1.034 0.174-1.126c0.029-0.195 0.058-0.394 0.086-0.597l0.171-1.259 0.085-0.662 0.169-1.386 0.166-1.468 0.164-1.546 0.161-1.622 0.158-1.696 0.155-1.767 0.152-1.835 0.149-1.9 0.216-2.967 0.139-2.052 0.135-2.108 0.13-2.161 0.186-3.336 0.118-2.283 0.112-2.327 0.107-2.369 0.149-3.625 0.092-2.46 0.126-3.75 0.111-3.813 0.096-3.867 0.055-2.603 0.047-2.621 0.056-3.958 0.027-2.652 0.019-2.66 0.010-2.665 0.002-2.668-0.007-2.668-0.017-2.665-0.026-2.66-0.036-2.652-0.046-2.641-0.056-2.628-0.103-3.911-0.082-2.583-0.093-2.56-0.104-2.534-0.056-1.257c-0.069-1.5-0.126-3.029-0.172-4.585l-0.061-2.354c-0.018-0.791-0.032-1.588-0.045-2.391l-0.029-2.425-0.014-2.457-0.002-1.24 0.016-3.76 0.046-3.814 0.046-2.569 0.058-2.586 0.069-2.601 0.080-2.614 0.090-2.624 0.152-3.948 0.172-3.955 0.124-2.637 0.2-3.948 0.214-3.932 0.227-3.907 0.318-5.156 0.417-6.329 0.43-6.162 0.521-7.117 1.714-22.404 0.239-3.269 0.157-2.257 0.214-3.363c-2.218-0.686-4.714-1.359-7.405-1.976l-1.486-0.331c-10.029-2.165-22.419-3.487-33.112-1.901l-0.063 1.437-0.080 1.463-0.098 1.492-0.116 1.523-0.065 0.774-0.145 1.576-0.164 1.614c-0.058 0.545-0.119 1.097-0.184 1.656l-0.204 1.699-0.225 1.746-0.246 1.795-0.268 1.847c-0.046 0.312-0.094 0.627-0.142 0.944l-0.379 2.422-0.378 2.288-0.297 1.701-0.337 1.856-0.376 2.003-0.413 2.144-0.685 3.464-0.498 2.465-0.805 3.913-0.87 4.151-0.929 4.366-0.983 4.558-1.386 6.335-1.088 4.914-1.506 6.725-1.557 6.872-1.595 6.963-1.619 7-1.631 6.98-2.037 8.614-2.010 8.389-1.958 8.056-1.139 4.629-1.106 4.447-1.414 5.605-1.332 5.184-0.631 2.417-0.606 2.291-0.579 2.158-0.551 2.018-0.521 1.872-0.489 1.718-0.456 1.557c-0.073 0.246-0.145 0.485-0.215 0.716l-0.498 1.602-0.093 0.287c-0.454 1.401-0.842 3.075-1.168 4.98l-0.172 1.062-0.16 1.106c-0.103 0.752-0.198 1.532-0.285 2.338l-0.125 1.229-0.168 1.915-0.098 1.321-0.088 1.356-0.112 2.094-0.062 1.434-0.053 1.463-0.043 1.49-0.047 2.283-0.020 1.552-0.012 1.573-0.001 2.398 0.027 3.259 0.041 2.484 0.037 1.672 0.067 2.484 0.039 1.249 0.114 3.14 0.135 3.156 0.060 1.265 0.129 2.53 0.141 2.527 0.152 2.519 0.163 2.506 0.173 2.488 0.182 2.465 0.19 2.437 0.198 2.404 0.205 2.366 0.211 2.323 0.217 2.275 0.222 2.223 0.226 2.165 0.23 2.103 0.232 2.035 0.352 2.915 0.236 1.845 0.237 1.76 0.237 1.67 0.236 1.576c0.039 0.254 0.078 0.505 0.117 0.751l0.233 1.424c0.039 0.229 0.077 0.453 0.115 0.672l0.229 1.262 0.225 1.148 0.177 0.832c0.029 0.132 0.058 0.261 0.087 0.387l0.172 0.713c0.189 0.747 0.329 1.651 0.422 2.697l0.056 0.719 0.023 0.375 0.036 0.78 0.023 0.82 0.010 0.859-0.002 0.897-0.015 0.935-0.027 0.971-0.063 1.522-0.089 1.598-0.074 1.106-0.131 1.718-0.101 1.183-0.171 1.829-0.194 1.892-0.142 1.294-0.152 1.32-0.332 2.712-0.273 2.094-0.331 2.412c-0.057 0.407-0.115 0.816-0.174 1.227l-0.366 2.494-0.192 1.266-0.607 3.866-0.431 2.628c-0.147 0.882-0.297 1.77-0.45 2.664l-0.468 2.695-0.486 2.721-0.502 2.743-0.517 2.761-0.802 4.164-0.551 2.785-0.563 2.787-0.864 4.173-0.588 2.771-0.596 2.757-0.603 2.739-0.609 2.716-0.614 2.688-0.618 2.656-0.777 3.268-0.779 3.202-0.624 2.508-0.624 2.456-0.622 2.399-0.31 1.177-0.925 3.432-0.915 3.274-0.602 2.087-0.299 1.013-0.591 1.963-0.736 2.367-0.308 1.024-0.155 0.531-0.465 1.665-0.466 1.772-0.311 1.239-0.311 1.284-0.311 1.328-0.311 1.371-0.311 1.412-0.465 2.195-0.31 1.513-0.309 1.551-0.308 1.588-0.307 1.625-0.459 2.503-0.456 2.579-0.453 2.651-0.449 2.72-0.445 2.786-0.44 2.848-0.435 2.906-0.287 1.969-0.425 2.997-0.419 3.046-0.276 2.057-0.51 3.916c-0.504 3.948-0.99 7.989-1.454 12.092l-0.457 4.123-0.442 4.158c-0.398 3.825-0.775 7.686-1.129 11.559l-0.363 4.070-0.345 4.073-0.277 3.447-0.177 2.295-0.254 3.435-0.239 3.423-0.224 3.407-0.141 2.261-0.197 3.373-0.238 4.457-0.158 3.308-0.096 2.187-0.088 2.17-0.117 3.223-0.067 2.125-0.085 3.15-0.046 2.073-0.037 2.050-0.039 3.031-0.015 1.989-0.005 1.962 0.009 2.891 0.018 1.891 0.028 1.861 0.038 1.83 0.076 2.683 0.063 1.746 0.074 1.711 0.084 1.675 0.095 1.637 0.106 1.599 0.117 1.559 0.161 1.892 0.179 1.826 0.077 0.712 0.162 1.39c0.084 0.684 0.172 1.351 0.265 2.001l0.963 6.639 1.562 10.478 3.201 20.965 8.239 53.344 2.273 14.9 1.493 9.921 1.571 10.619 1.131 7.829 1.182 8.471 0.735 5.537 0.346 2.74 0.243 2.007 0.211 1.835 0.217 2.042 0.104 1.085 0.084 0.976 0.057 0.828c0.025 0.427 0.043 0.874 0.057 1.34l0.019 0.958c0.006 0.492 0.005 1.003-0.001 1.534l-0.020 1.087-0.035 1.139-0.050 1.191-0.065 1.243-0.081 1.295-0.096 1.347-0.111 1.398-0.126 1.45-0.142 1.502-0.157 1.554-0.172 1.606-0.188 1.658-0.203 1.71-0.333 2.661-0.241 1.839-0.256 1.891-0.272 1.943-0.287 1.995-0.302 2.046-0.317 2.098-0.505 3.245-0.356 2.228-0.562 3.439-0.394 2.357-0.833 4.87-0.894 5.078-0.711 3.944-0.745 4.061-0.78 4.178-0.814 4.294-0.848 4.411-1.185 6.063-0.929 4.683-1.292 6.426-1.7 8.324c-7.841-0.732-11.827-5.987-11.957-15.764l-0.003-0.501c0-2.272-0.315-5.184-0.86-8.625l-0.23-1.404-0.124-0.723-0.265-1.486-0.286-1.539-0.306-1.59-0.325-1.639-0.343-1.687-0.735-3.512-0.998-4.631-2.415-11.018-1.155-5.33-0.932-4.386-0.697-3.352-0.691-3.4-0.228-1.143-0.452-2.3-0.446-2.316-0.438-2.331-0.64-3.522-0.516-2.954-0.497-2.968-0.193-1.191-0.375-2.386c-1.102-7.166-1.995-14.397-2.532-21.504l-0.145-2.005-0.132-1.7-0.149-1.772-0.166-1.842-0.182-1.909-0.198-1.974-0.213-2.036-0.347-3.165-0.367-3.19-0.194-1.637-0.622-5.066-0.446-3.498-0.469-3.585-0.49-3.664-0.51-3.735-0.528-3.799-0.545-3.855-0.56-3.903-0.865-5.928-0.89-5.993-0.91-6.031-1.234-8.056-0.934-6.019-1.247-7.944-1.544-9.712-2.375-14.75-4.626-28.477-0.697-4.358-0.571-3.648-0.339-2.233-0.18-1.234-0.141-1.022-0.101-0.802c-0.29-2.474-0.774-4.826-1.288-7.112l-0.764-3.355-0.276-1.264c-8.141-1.627-17.615-1.978-27.611-0.65-0.312 5.147-0.797 10.361-1.508 15.597l-1.155 8.358-2.21 15.812-1.096 7.987-0.924 6.884-0.552 4.203-0.546 4.242-0.713 5.695-0.52 4.284-0.503 4.281-0.324 2.846-0.314 2.835-0.451 4.223-0.286 2.791-0.272 2.766-0.131 1.373-0.37 4.072-0.281 3.333-0.253 3.27-0.182 2.565-0.162 2.516-0.108 1.853-0.096 1.822-0.084 1.789-0.071 1.755-0.058 1.719-0.044 1.681-0.030 1.642-0.020 1.601c0 1.317 0 2.589 0.030 3.814l0.038 1.446c0.1 3.081 0.314 5.824 0.661 8.156l0.451 2.819 0.436 2.92 0.308 2.165 0.484 3.55 0.51 3.887 0.443 3.473 0.928 7.511 1.376 11.545 2.591 22.46 3.318 29.037 1.74 14.853 1.017 8.367 0.556 4.417 0.524 4.023 0.556 4.064 0.385 2.638 0.24 1.549 0.433 2.626 0.216 1.361 0.339 2.235 0.36 2.452 1.527 10.61 0.649 4.387 0.706 4.612 0.569 3.585 0.4 2.441 0.631 3.728 0.443 2.523 0.461 2.547c0.157 0.853 0.316 1.709 0.479 2.568l0.499 2.583 0.333 1.678 0.516 2.523 0.355 1.684 0.363 1.684 0.562 2.525 0.386 1.68 0.396 1.676 0.405 1.671 0.415 1.665 0.425 1.657 0.216 0.825 0.44 1.644 0.45 1.633 0.229 0.812 0.583 2.016 0.6 1.994 0.492 1.578 0.503 1.562c0.169 0.518 0.341 1.032 0.514 1.544l0.525 1.524 0.537 1.504c3.796 10.454 8.441 19.32 14.168 24.712 5.773 5.436 13.984 10.329 23.057 14.769l1.766 0.854c0.592 0.283 1.187 0.563 1.785 0.842l1.802 0.831 1.816 0.821 1.827 0.81 1.836 0.799 2.085 0.892 1.044 0.441 2.090 0.872 2.089 0.859 3.123 1.265 2.070 0.828 3.077 1.219 10.813 4.245 2.766 1.1 1.788 0.72 1.739 0.71 1.686 0.7 2.028 0.861 1.933 0.846 1.124 0.506 1.084 0.501 1.043 0.496 1.485 0.735 0.934 0.483c2.733 1.443 4.837 2.821 6.117 4.144l0.493 0.507 1.027 1.042 3.343 3.363 1.179 1.204c4.165 4.29 8.706 9.383 12.28 15.517 15.509-3.419 32.033-5.264 49.178-5.264 18.949 0 37.139 2.254 54.042 6.395z" />
<glyph unicode="&#xe911;" glyph-name="wetsuit-winter" d="M508.597 934.4c32.281 0 45.416-27.638 45.416-46.697s-11.392-62.892-5.696-84.435c5.696-21.543 32.718-31.754 52.047-37.591s42.399-3.394 47.317-65.179c4.918-61.785 7.565-83.838 7.565-93.825s7.609-29.579 7.609-60.664c0-31.085-5.453-77.018-2.726-97.376s-1.776-45.899-8.795-54.804c-7.019-8.905-23.111-22.577-27.452-17.961s5.531 37.982 4.785 48.194c-0.745 10.211 7.789 33.149 7.922 41.448s-19.267 79.218-23.377 98.344c-2.74 12.751-7.023 49.067-12.848 108.949-6.87-31.67-9.182-56.061-6.938-73.172 3.367-25.666 15.989-107.568 14.322-134.121s-0.778-153.707-2.557-178.404c-1.78-24.697-3.171-86.357-11.765-117.525s-27.993-77.29-24.252-91.652c3.742-14.362 25.877-56.487 27.959-62.603s-7.23-21.383-15.39-22.077c-8.16-0.694-34.208 33.908-40.838 47.201s-11.941 18.341-7.833 34.146c4.109 15.805 4.867 50.72 4.494 68.491s-7.871 40.671-4.494 54.989c2.251 9.545 4.862 18.794 7.833 27.746-1.261 17.282-2.374 34.333-3.339 51.152s-7.308 59.259-19.031 127.32h-5.424c-4.24-46.708-6.531-74.61-6.875-83.708-0.515-13.647 6.553-49.466 4.122-61.778s-9.354-29.258-7.092-37.376c2.262-8.118 4.436-49.338 2.97-81.204s4.091-81.476 4.122-91.556c0.030-10.080 4.411-16.132 2.753-20.856s-12.801-41.349-17.369-47.325c-4.569-5.975-15.212-21.307-19.596-18.567s-22.307 5.097-22.058 11.765c0.249 6.668 19.833 34.193 22.058 50.188s3.247 24.202 0 43.787c-3.247 19.584-20.027 91.536-24.672 105.852s-0.086 66.076 2.614 76.757c2.7 10.681-7.742 63.476-15.088 86.725s-15.771 103.789-11.436 134.189c4.335 30.4 16.736 106.283 17.966 121.584 0.82 10.201-3.215 36.878-12.105 80.031-6.083-0.568-9.124-4.704-9.124-12.407 0-11.556-10.681-44.791-12.788-74.849s-16.39-111.276-17.417-120.037c-1.027-8.761-5.255-15.533 0-24.436s8.396-34.049 7.067-42.994c-1.329-8.945-1.591-14.653 2.922-18.056s4.612-15.573-2.922-11.586c-7.534 3.987-31.193 20.698-31.054 35.857s3.339 39.102 0 63.668c-3.339 24.566-11.263 75.725-8.327 93.306s9.593 83.902 12.187 99.127c2.593 15.225 7.495 66.24 23.569 81.375s56.932 24.761 64.082 32.151c7.15 7.39 20.552 18.693 18.776 37.745s-14.375 59.415-12.915 72.565c1.46 13.151 8.833 50.167 41.114 50.167z" />
<glyph unicode="&#xe912;" glyph-name="checkbox" d="M819.2 857.6c56.554 0 102.4-45.846 102.4-102.4v-614.4c0-56.554-45.846-102.4-102.4-102.4h-614.4c-56.554 0-102.4 45.846-102.4 102.4v614.4c0 56.554 45.846 102.4 102.4 102.4h614.4zM819.2 755.2h-614.4v-614.4h614.4v614.4z" />
<glyph unicode="&#xe913;" glyph-name="checkbox-checked" horiz-adv-x="1075" d="M870.4 857.6c56.554 0 102.4-45.846 102.4-102.4v-614.4c0-56.554-45.846-102.4-102.4-102.4h-614.4c-56.554 0-102.4 45.846-102.4 102.4v614.4c0 56.554 45.846 102.4 102.4 102.4h614.4zM798.044 685.83c-15.886-0.691-30.587-6.117-42.582-16.28l-5.765-5.476-253.823-253.823c-6.216-5.525-15.392-6.315-21.947-2.368l-3.033 2.368-92.665 92.665c-64.573 67.723-163.777-28.474-103.573-94.553l171.259-172.163c18.595-18.595 48.862-20.025 69.253-4.291l4.879 4.291 328.761 328.761c45.93 45.124 13.698 122.48-50.765 120.868z" />
<glyph unicode="&#xe914;" glyph-name="wetsuit-freeze1" horiz-adv-x="1075" d="M466.691 934.4c32.281 0 45.416-27.638 45.416-46.697s-11.392-62.892-5.696-84.435c5.696-21.543 32.718-31.754 52.047-37.591s42.399-3.394 47.317-65.179c4.918-61.785 7.565-83.838 7.565-93.825s7.609-29.579 7.609-60.664c0-31.085-5.453-77.018-2.726-97.376s-1.776-45.899-8.795-54.804c-7.019-8.905-23.111-22.577-27.452-17.961s5.531 37.982 4.785 48.194c-0.745 10.211 7.789 33.149 7.922 41.448s-19.267 79.218-23.377 98.344c-2.74 12.751-7.023 49.067-12.848 108.949-6.87-31.67-9.182-56.061-6.938-73.172 3.367-25.666 15.989-107.568 14.322-134.121s-0.778-153.707-2.557-178.404c-1.78-24.697-3.171-86.357-11.765-117.525s-27.993-77.29-24.252-91.652c3.742-14.362 25.877-56.487 27.959-62.603s-7.23-21.383-15.39-22.077c-8.16-0.694-34.208 33.908-40.838 47.201s-11.941 18.341-7.833 34.146c4.109 15.805 4.867 50.72 4.494 68.491s-7.871 40.671-4.494 54.989c2.251 9.545 4.862 18.794 7.833 27.746-1.261 17.282-2.374 34.333-3.339 51.152s-7.308 59.259-19.031 127.32h-5.424c-4.24-46.708-6.531-74.61-6.875-83.708-0.515-13.647 6.553-49.466 4.122-61.778s-9.354-29.258-7.092-37.376c2.262-8.118 4.436-49.338 2.97-81.204s4.091-81.476 4.122-91.556c0.030-10.080 4.411-16.132 2.753-20.856s-12.801-41.349-17.369-47.325c-4.569-5.975-15.212-21.307-19.596-18.567s-22.307 5.097-22.058 11.765c0.249 6.668 19.833 34.193 22.058 50.188s3.247 24.202 0 43.787c-3.247 19.584-20.027 91.536-24.672 105.852s-0.086 66.076 2.614 76.757c2.7 10.681-7.742 63.476-15.088 86.725s-15.771 103.789-11.436 134.189c4.335 30.4 16.736 106.283 17.966 121.584 0.82 10.201-3.215 36.878-12.105 80.031-6.083-0.568-9.124-4.704-9.124-12.407 0-11.556-10.681-44.791-12.788-74.849s-16.39-111.276-17.417-120.037c-1.027-8.761-5.255-15.533 0-24.436s8.396-34.049 7.067-42.994c-1.329-8.945-1.591-14.653 2.922-18.056s4.612-15.573-2.922-11.586c-7.534 3.987-31.193 20.698-31.054 35.857s3.339 39.102 0 63.668c-3.339 24.566-11.263 75.725-8.327 93.306s9.593 83.902 12.187 99.127c2.593 15.225 7.495 66.24 23.569 81.375s56.932 24.761 64.082 32.151c7.15 7.39 20.552 18.693 18.776 37.745s-14.375 59.415-12.915 72.565c1.46 13.151 8.833 50.167 41.114 50.167zM734.744 356.109l161.135-92.889v-185.813l-161.135-92.889-161.135 92.889v185.813l161.135 92.889zM734.72 326.605l-135.526-78.182v-156.211l135.526-78.131 135.526 78.131v156.211l-135.526 78.182zM744.483 302.48v-35.059l26.155 19.755 11.408-15.582-37.563-28.381v-28.938l23.651-13.634 25.042 14.469 5.565 47.023 19.199-2.504-3.895-32.276 30.329 17.529 9.739-16.695-30.329-17.529 30.051-12.799-7.513-17.808-43.406 18.364-25.042-14.469v-27.268l25.042-14.469 43.406 18.364 7.513-17.808-30.051-12.799 30.329-17.808-9.739-16.695-30.329 17.529 3.895-32.276-19.199-2.226-5.565 47.023-25.042 14.469-23.651-13.634v-28.938l38.12-28.381-11.686-15.582-26.155 19.755v-35.059h-19.477v35.059l-26.155-19.755-11.686 15.582 37.563 28.381v28.938l-23.651 13.634-25.042-14.469-5.565-47.023-19.199 2.782 3.895 32.276-30.329-17.529-9.739 16.695 30.329 17.251-30.051 12.799 7.513 17.808 43.406-18.364 25.042 14.469v27.268l-25.042 14.469-43.406-18.364-7.513 17.808 30.051 12.799-30.329 17.808 9.739 16.695 30.329-17.529-3.895 32.276 19.199 2.226 5.565-47.023 25.042-14.469 23.929 13.634v28.938l-37.841 28.381 11.408 15.582 26.155-19.755v35.059h19.477zM734.744 197.582l-23.651-13.634v-27.268l23.651-13.634 23.651 13.634v27.268l-23.651 13.634z" />
<glyph unicode="&#xe915;" glyph-name="trash" d="M426.667 192v375.467c0 9.591-7.475 17.067-17.067 17.067h-34.133c-9.591 0-17.067-7.475-17.067-17.067v-375.467c0-9.591 7.475-17.067 17.067-17.067h34.133c9.591 0 17.067 7.475 17.067 17.067zM563.2 192v375.467c0 9.591-7.475 17.067-17.067 17.067h-34.133c-9.591 0-17.067-7.475-17.067-17.067v-375.467c0-9.591 7.475-17.067 17.067-17.067h34.133c9.591 0 17.067 7.475 17.067 17.067zM699.733 192v375.467c0 9.591-7.475 17.067-17.067 17.067h-34.133c-9.591 0-17.067-7.475-17.067-17.067v-375.467c0-9.591 7.475-17.067 17.067-17.067h34.133c9.591 0 17.067 7.475 17.067 17.067zM409.6 721.067h238.933l-25.6 62.396c-1.604 2.15-6.383 5.325-9.079 5.871h-169.062c-3.209-0.546-7.475-3.721-9.079-5.871l-26.112-62.396zM904.533 704v-34.133c0-9.591-7.475-17.067-17.067-17.067h-51.2v-505.583c0-58.675-38.4-108.783-85.333-108.783h-443.733c-46.933 0-85.333 47.991-85.333 106.667v507.733h-51.2c-9.591 0-17.067 7.475-17.067 17.067v34.133c0 9.591 7.475 17.067 17.067 17.067h164.796l37.342 89.054c10.684 26.146 42.667 47.479 70.929 47.479h170.667c28.262 0 60.279-21.333 70.929-47.479l37.342-89.054h164.796c9.591 0 17.067-7.475 17.067-17.067v-0.034z" />
<glyph unicode="&#xe916;" glyph-name="eye" d="M512 607.29c-15.074-0.236-30.036-2.631-44.43-7.112 6.658-11.709 10.203-24.93 10.297-38.4 0-43.986-35.658-79.644-79.644-79.644-13.47 0.093-26.691 3.639-38.4 10.297-18.946-65.708 6.279-136.167 62.623-174.92s131.164-37.105 185.747 4.092c54.582 41.197 76.68 112.699 54.858 177.508s-82.666 108.384-151.050 108.179v0zM916.651 468.764c-77.127 150.485-229.817 252.302-404.651 252.302s-327.566-101.888-404.651-252.316c-6.598-13.052-6.598-28.463 0-41.515 77.127-150.485 229.817-252.302 404.651-252.302s327.566 101.888 404.651 252.316c6.598 13.052 6.598 28.463 0 41.515zM512 243.2c-140.302 0-268.928 78.222-338.389 204.8 69.461 126.578 198.073 204.8 338.389 204.8s268.928-78.222 338.389-204.8c-69.447-126.578-198.073-204.8-338.389-204.8z" />
<glyph unicode="&#xe917;" glyph-name="drag" d="M441.6 908.8c10.604 0 19.2-8.596 19.2-19.2v-115.2c0-10.604-8.596-19.2-19.2-19.2h-115.2c-10.604 0-19.2 8.596-19.2 19.2v115.2c0 10.604 8.596 19.2 19.2 19.2h115.2zM441.6 652.8c10.604 0 19.2-8.596 19.2-19.2v-115.2c0-10.604-8.596-19.2-19.2-19.2h-115.2c-10.604 0-19.2 8.596-19.2 19.2v115.2c0 10.604 8.596 19.2 19.2 19.2h115.2zM441.6 396.8c10.604 0 19.2-8.596 19.2-19.2v-115.2c0-10.604-8.596-19.2-19.2-19.2h-115.2c-10.604 0-19.2 8.596-19.2 19.2v115.2c0 10.604 8.596 19.2 19.2 19.2h115.2zM441.6 140.8c10.604 0 19.2-8.596 19.2-19.2v-115.2c0-10.604-8.596-19.2-19.2-19.2h-115.2c-10.604 0-19.2 8.596-19.2 19.2v115.2c0 10.604 8.596 19.2 19.2 19.2h115.2zM697.6 908.8c10.604 0 19.2-8.596 19.2-19.2v-115.2c0-10.604-8.596-19.2-19.2-19.2h-115.2c-10.604 0-19.2 8.596-19.2 19.2v115.2c0 10.604 8.596 19.2 19.2 19.2h115.2zM697.6 652.8c10.604 0 19.2-8.596 19.2-19.2v-115.2c0-10.604-8.596-19.2-19.2-19.2h-115.2c-10.604 0-19.2 8.596-19.2 19.2v115.2c0 10.604 8.596 19.2 19.2 19.2h115.2zM697.6 396.8c10.604 0 19.2-8.596 19.2-19.2v-115.2c0-10.604-8.596-19.2-19.2-19.2h-115.2c-10.604 0-19.2 8.596-19.2 19.2v115.2c0 10.604 8.596 19.2 19.2 19.2h115.2zM697.6 140.8c10.604 0 19.2-8.596 19.2-19.2v-115.2c0-10.604-8.596-19.2-19.2-19.2h-115.2c-10.604 0-19.2 8.596-19.2 19.2v115.2c0 10.604 8.596 19.2 19.2 19.2h115.2z" />
<glyph unicode="&#xe918;" glyph-name="heart-empty" d="M863.086 592.472c0 128.468-86.864 155.443-160.007 155.443-68.111 0-144.911-73.611-168.697-101.932-10.971-13.253-33.821-13.253-44.793 0-23.757 28.35-100.557 101.932-168.697 101.932-73.143 0-160.007-26.975-160.007-155.443 0-83.646 84.582-161.382 85.489-162.289l265.596-256 265.157 255.532c1.375 1.375 85.957 79.082 85.957 162.757zM921.6 592.472c0-109.714-100.557-201.611-104.682-205.707l-284.789-274.286c-5.471-5.471-12.815-8.221-20.129-8.221s-14.629 2.75-20.129 8.221l-285.257 275.193c-3.657 3.189-104.243 95.086-104.243 204.8 0 133.939 81.832 213.957 218.522 213.957 79.989 0 154.975-63.078 191.078-98.743 36.103 35.664 111.089 98.743 191.078 98.743 136.689 0 218.522-79.989 218.522-213.957h0.029z" />
<glyph unicode="&#xe919;" glyph-name="heart" d="M512 104.229c-7.314 0-14.629 2.75-20.129 8.221l-285.257 275.193c-3.657 3.189-104.243 95.086-104.243 204.8 0 133.939 81.832 213.957 218.522 213.957 79.989 0 154.975-63.078 191.078-98.743 36.103 35.664 111.089 98.743 191.078 98.743 136.689 0 218.522-79.989 218.522-213.957 0-109.714-100.557-201.611-104.682-205.707l-284.789-274.286c-5.471-5.471-12.815-8.221-20.129-8.221h0.029z" />
<glyph unicode="&#xe91a;" glyph-name="eye-slash" d="M912.668 173.657l-763.055 596.523c-4.227 3.384-9.625 4.951-15.007 4.355s-10.307-3.305-13.691-7.532l-12.76-15.937c-3.392-4.228-4.964-9.632-4.367-15.020s3.31-10.318 7.545-13.703l763.055-596.523c4.227-3.384 9.625-4.951 15.007-4.355s10.307 3.305 13.691 7.532l12.76 15.937c3.392 4.228 4.964 9.632 4.367 15.020s-3.31 10.318-7.545 13.703zM482.384 587.762l171.994-134.466c-2.833 76.484-65.204 137.618-142.377 137.618-9.955-0.019-19.88-1.075-29.616-3.152zM541.616 308.226l-171.994 134.466c2.846-76.471 65.217-137.605 142.377-137.605 9.954 0.021 19.879 1.073 29.616 3.139v0zM512 631.746c125.879 0 241.281-70.181 303.602-183.746-15.277-27.949-34.152-53.775-56.145-76.816l48.157-37.642c26.811 28.682 49.527 60.935 67.501 95.841 5.92 11.71 5.92 25.537 0 37.247-69.262 135.015-206.255 226.365-363.115 226.365-46.83 0-91.503-8.932-133.509-24.002l59.22-46.306c24.168 5.487 48.922 9.060 74.289 9.060zM512 264.254c-125.879 0-241.268 70.181-303.602 183.746 15.297 27.949 34.194 53.771 56.208 76.803l-48.157 37.642c-26.807-28.678-49.519-60.927-67.488-95.829-5.92-11.71-5.92-25.537 0-37.247 69.198-135.015 206.191-226.365 363.038-226.365 46.83 0 91.503 8.996 133.509 24.002l-59.22 46.294c-24.168-5.474-48.91-9.047-74.289-9.047z" />
<glyph unicode="&#xe91b;" glyph-name="star" d="M496.988 828.336c5.554 13.354 24.469 13.354 30.024 0l101.76-244.66c2.34-5.629 7.634-9.476 13.716-9.963l264.131-21.175c14.413-1.156 20.26-19.147 9.277-28.556l-201.242-172.381c-4.628-3.968-6.651-10.194-5.238-16.123l61.481-257.746c3.359-14.070-11.945-25.19-24.289-17.649l-226.135 138.122c-5.202 3.174-11.746 3.174-16.949 0l-226.133-138.122c-12.343-7.542-27.647 3.579-24.291 17.649l61.482 257.746c1.415 5.929-0.608 12.155-5.238 16.123l-201.24 172.381c-10.984 9.409-5.138 27.4 9.278 28.556l264.131 21.175c6.077 0.487 11.372 4.334 13.713 9.963l101.76 244.66z" />
<glyph unicode="&#xe91c;" glyph-name="plus" d="M463.359 48.64c0-5.658 4.584-10.24 10.24-10.24h76.801c5.652 0 10.24 4.582 10.24 10.24v350.72h350.72c5.658 0 10.24 4.582 10.24 10.24v76.8c0 5.656-4.582 10.24-10.24 10.24h-350.72v350.72c0 5.656-4.588 10.24-10.24 10.24h-76.801c-5.656 0-10.24-4.584-10.24-10.24v-350.72h-350.719c-5.656 0-10.24-4.584-10.24-10.24v-76.8c0-5.658 4.584-10.24 10.24-10.24h350.719v-350.72z" />
<glyph unicode="&#xe91d;" glyph-name="minus" d="M102.4 486.4c0 5.656 4.584 10.24 10.24 10.24h798.72c5.658 0 10.24-4.584 10.24-10.24v-76.8c0-5.658-4.582-10.24-10.24-10.24h-798.72c-5.656 0-10.24 4.582-10.24 10.24v76.8z" />
<glyph unicode="&#xe91e;" glyph-name="angle-left" d="M744.351 808.58l-44.82 44.818c-7.997 7.998-20.966 7.998-28.964 0l-390.915-390.916c-2.999-2.999-4.874-6.697-5.624-10.57l-0.375-3.912c0-5.239 1.999-10.482 5.999-14.48l390.915-390.917c7.997-7.997 20.966-7.997 28.964 0l44.82 44.82c7.997 7.997 7.997 20.961 0 28.964l-331.617 331.612 331.617 331.617c7.997 7.998 7.997 20.965 0 28.963z" />
<glyph unicode="&#xe91f;" glyph-name="share" d="M886.902 856.357c20.854 8.263 41.492-12.379 33.234-33.23l-305.249-770.303c-8.806-22.226-40.566-21.325-48.097 1.362l-107.822 324.777c-2.546 7.67-8.562 13.686-16.23 16.23l-324.774 107.821c-22.687 7.532-23.588 39.289-1.365 48.095l770.303 305.248zM781.763 759.619l-580.883-230.185 257.99-85.652c1.743-0.579 3.459-1.213 5.143-1.91l317.75 317.748zM505.647 400.236c0.696-1.684 1.334-3.4 1.913-5.14l85.648-257.992 230.185 580.881-317.747-317.749z" />
<glyph unicode="&#xe920;" glyph-name="search" d="M1014.88 33.504c12.192-12.192 12.192-31.968 0-44.192l-44.192-44.192c-12.224-12.192-32-12.192-44.192 0l-309.376 309.376c-3.36 3.36-5.6 7.328-7.104 11.552-63.456-46.368-141.376-74.048-226.016-74.048-212.064 0-384 171.936-384 384s171.936 384 384 384c212.064 0 384-171.936 384-384 0-84.64-27.68-162.56-74.048-226.016 4.224-1.504 8.192-3.712 11.552-7.104l309.376-309.376zM384 832c-141.376 0-256-114.624-256-256s114.624-256 256-256 256 114.624 256 256c0 141.376-114.624 256-256 256z" />
<glyph unicode="&#xe921;" glyph-name="tab-bar-active-search" d="M357.743 233.898c91.421 0 174.705 34.816 237.328 91.91l341.959-341.963c11.756-11.756 30.818-11.756 42.578 0 11.756 11.76 11.756 30.822 0 42.578l-343.622 343.618c46.453 59.691 74.117 134.722 74.117 216.215 0 194.603-157.757 352.359-352.36 352.359s-352.359-157.756-352.359-352.359c0-194.601 157.756-352.358 352.359-352.358z" />
<glyph unicode="&#xe922;" glyph-name="tab-bar-search" d="M595.071 317.108l341.959-341.963c11.756-11.756 30.818-11.756 42.578 0 11.756 11.76 11.756 30.818 0 42.578l-343.622 343.618c46.453 59.691 74.117 134.722 74.117 216.215 0 194.603-157.757 352.359-352.36 352.359s-352.359-157.756-352.359-352.359c0-194.601 157.757-352.358 352.359-352.358 91.421 0 174.705 34.816 237.328 91.91zM649.892 577.556c0-161.349-130.802-292.147-292.149-292.147s-292.147 130.798-292.147 292.147c0 161.348 130.799 292.147 292.147 292.147s292.149-130.799 292.149-292.147z" />
<glyph unicode="&#xe923;" glyph-name="tab-bar-active-me" d="M496.902 702.582c84.48 0 153.6-69.12 153.6-153.6 0-86.401-69.12-153.6-153.6-153.6-86.397 0-153.598 67.199-153.598 153.6 0 84.48 67.201 153.6 153.598 153.6zM496.902 948.342c270.721 0 491.52-220.8 491.52-491.52 0-272.642-220.799-491.52-491.52-491.52-272.638 0-491.518 218.878-491.518 491.52 0 270.72 218.88 491.52 491.518 491.52zM794.505 147.702c80.638 78.721 132.477 188.162 132.477 309.121 0 236.16-193.917 430.080-430.080 430.080-238.078 0-430.078-193.92-430.078-430.080 0-120.959 49.92-230.4 130.56-309.121 26.88 105.599 122.88 186.241 238.078 186.241h122.88c113.283 0 209.281-80.642 236.163-186.241z" />
<glyph unicode="&#xe924;" glyph-name="tab-bar-active-map" horiz-adv-x="1210" d="M394.723 920.209c6.545 4.364 13.091 4.364 21.818 2.182l367.033-137.455 314.182 126.545c32.726 13.091 71.997-10.909 71.997-48v-730.911c0-21.816-13.089-41.453-34.909-47.998l-338.181-135.275c-6.544-4.361-13.089-4.361-21.816-2.178l-367.033 137.453-314.182-126.548c-32.728-13.089-69.818 10.91-69.818 48.002v730.908c0 21.818 10.909 41.455 32.727 48l338.182 135.273zM750.843 721.664l-308.12 120v-693.816l308.12-120.003v693.82z" />
<glyph unicode="&#xe925;" glyph-name="tab-bar-active-favorites" horiz-adv-x="1164" d="M493.736 848.677c33.313-23.816 62.413-50.194 83.768-72.058 21.346 21.84 50.446 48.216 83.763 72.039 45.931 32.843 111.434 69.277 181.532 69.277 57.428 0 130.881-10.219 191.4-54.936 64.545-47.692 101.837-125.057 101.837-231.963 0-80.25-39.592-151.17-72.062-196.957-33.727-47.551-68.11-79.272-68.11-79.272l-0.461-0.465-417.941-402.772-418.952 403.828c0.275-0.275-33.961 31.316-67.61 78.806-32.379 45.694-71.957 116.611-71.957 196.831 0 106.907 37.291 184.273 101.834 231.965 60.517 44.717 133.974 54.935 191.402 54.935 70.104 0 135.611-36.41 181.558-69.258z" />
<glyph unicode="&#xe926;" glyph-name="tab-bar-active-spots" d="M20.956 456.823c0-232.563 161.514-427.401 378.491-478.462l1.141-0.283 9.209-2.068 9.040-1.839 3.068-0.541c3.26-0.606 6.533-1.184 9.814-1.724l3.834-0.676 14.070-2.007 5.259-0.639 14.127-1.438 5.317-0.385c1.54-0.119 3.080-0.229 4.62-0.332l4.461-0.324 2.978-0.123c3.564-0.184 7.135-0.336 10.719-0.442l1.79-0.078 1.79-0.020c3.584-0.086 7.176-0.131 10.777-0.139h1.016c271.458 0 491.52 220.062 491.52 491.52s-220.062 491.52-491.52 491.52c-271.458 0-491.519-220.061-491.519-491.52zM139.846 254.661l-5.014-3.805c-33.432 61.166-52.435 131.346-52.435 205.967 0 237.526 192.553 430.080 430.079 430.080s430.080-192.553 430.080-430.080c0-100.164-34.238-192.332-91.656-265.433-5.161-3.838-10.293-7.352-15.385-10.559-57.016-35.922-109.167-33.468-147.948-21.438l-7.471 2.49-7.115 2.687-9.961 4.301-9.064 4.469-8.122 4.477-7.131 4.317-9.548 6.39-8.221 6.095c-56.103 43.532-65.782 92.996-66.216 138.707l0.045 10.473 0.274 10.318c2.765 80.056 62.64 155.832 150.114 155.267 10.596-0.066 20.619-0.791 30.069-2.208 1.593-0.242 3.17-0.5 4.731-0.778 2.908-0.52 5.759-1.106 8.557-1.765l1.171-0.279c3.346-0.819 6.611-1.737 9.794-2.761 1.249-0.397 2.486-0.815 3.707-1.249 3.129-1.106 6.173-2.318 9.134-3.641l2.941-1.245c2.048-0.692 4.239-1.065 6.525-1.065 11.158 0 20.201 8.966 20.201 20.021 0 4.42-1.442 8.507-3.903 11.821l-4.551 7.131-1.352 2.023c-0.528 0.778-1.057 1.548-1.585 2.318l-0.561 0.807-0.143 0.205c-2.621 3.748-5.325 7.385-8.106 10.912-1.917 2.433-3.875 4.813-5.865 7.141-2.154 2.514-4.35 4.967-6.59 7.359-44.274 47.277-105.8 70.916-184.582 70.916-119.579 0-196.921-66.131-260.352-145.955l-10.448-13.418-11.749-15.7-11.491-15.88-11.277-15.983-27.549-39.85-16.31-23.429-10.874-15.245-5.455-7.479-10.97-14.623c-8.973-11.702-18.065-22.893-27.384-33.366-6.808-7.651-13.737-14.926-20.83-21.737l-0.829-0.791c-6.319-6.029-12.769-11.686-19.379-16.929z" />
<glyph unicode="&#xe927;" glyph-name="tab-bar-spots" d="M1003.995 448.123c0 271.459-220.062 491.52-491.52 491.52s-491.519-220.061-491.519-491.52c0-271.458 220.061-491.52 491.519-491.52s491.52 220.062 491.52 491.52zM786.616 116.724c-74.424-61.637-169.955-98.681-274.141-98.681-151.672 0-285.007 78.512-361.579 197.112l7.057 5.37c27.313 21.651 51.368 49.074 73.648 78.135l0.191 0.25 11.215 14.954 5.639 7.737 11.074 15.528 16.31 23.429 27.523 39.809 11.090 15.716 11.242 15.54 11.43 15.274 10.177 13.074c61.11 76.87 130.649 134.38 236.527 134.38 76.902 0 132.338-24.162 170.57-70.568-15.774 3.703-32.506 5.415-49.963 5.526-107.586 0.692-177.406-92.045-180.601-184.529l-0.008-0.242-0.283-10.654-0.049-10.809v-0.426c0.238-24.793 2.97-52.802 14.43-81.22 11.608-28.774 31.474-56.283 63.513-81.142l0.262-0.205 9.077-6.73 10.727-7.18 8.249-4.993 9.265-5.108 10.375-5.116 11.305-4.878 8.331-3.146 8.647-2.875c30.581-9.482 67.961-13.636 108.749-3.334zM941.498 417.731c-13.251-69.489-32.674-115.458-51.401-146.551-19.083-31.678-38.154-49.156-52.093-61.301-56.459-44.872-106.336-42.967-141.89-32.010l-6.59 2.195-5.894 2.228-8.614 3.715-7.758 3.826-6.98 3.846-6.013 3.641-8.364 5.599-7.365 5.46c-23.9 18.604-36.86 37.523-44.2 55.726-7.487 18.563-9.818 38.076-10.031 58.913l0.045 9.925 0.262 9.859c2.388 67.58 52.298 126.321 119.62 125.886 22.856-0.147 40.862-3.744 55.022-10.056l0.512-0.221 3.985-1.688 1.069-0.365c5.145-1.737 10.617-2.662 16.237-2.662 27.64 0 50.512 22.282 50.512 50.332 0 10.674-3.367 20.648-9.105 28.819l-4.108 6.439-0.274 0.422c-51.438 77.738-131.453 115.263-234.062 115.263-133.222 0-218.353-74.693-284.082-157.407l-0.188-0.238-10.797-13.881-12.038-16.089-11.699-16.175-11.445-16.22-27.548-39.85-16.154-23.204-10.682-14.975-5.24-7.184-10.75-14.332c-20.56-26.804-40.741-49.435-61.998-66.507-25.041 54.555-39.002 115.253-39.002 179.212 0 237.526 192.553 430.080 430.079 430.080s430.080-192.553 430.080-430.080c0-10.22-0.356-20.353-1.057-30.392z" />
<glyph unicode="&#xe928;" glyph-name="tab-bar-map" horiz-adv-x="1158" d="M377.561 912.48c6.261 4.174 12.522 4.174 20.87 2.087l351.075-131.478 300.522 121.043c31.303 12.522 68.866-10.435 68.866-45.913v-699.129c0-20.872-12.52-39.656-33.391-45.915l-323.477-129.389c-6.26-4.176-12.52-4.176-20.867-2.088l-351.075 131.477-300.522-121.041c-31.305-12.524-66.783 10.431-66.783 45.911v699.132c0 20.87 10.435 39.652 31.304 45.913l323.478 129.391zM89.561 63.087l267.13 106.434v663.654l-267.13-106.435v-663.654zM718.198 722.567l-294.724 114.782v-663.652l294.724-114.781v663.651zM784.981 63.087l267.13 106.434v663.654l-267.13-106.435v-663.654z" />
<glyph unicode="&#xe929;" glyph-name="tab-bar-me" d="M496.902 939.643c270.721 0 491.52-220.8 491.52-491.52 0-272.642-220.799-491.52-491.52-491.52-272.638 0-491.518 218.878-491.518 491.52 0 270.72 218.88 491.52 491.518 491.52zM496.902 18.043c90.243 0 174.723 26.878 243.843 74.879-7.68 96.002-86.401 170.881-182.403 170.881h-122.88c-97.919 0-176.638-74.879-184.318-170.881 69.12-48.001 153.6-74.879 245.758-74.879zM794.505 139.002c80.638 78.721 132.477 188.162 132.477 309.121 0 236.16-193.917 430.080-430.080 430.080-238.078 0-430.078-193.92-430.078-430.080 0-120.959 49.92-230.4 130.56-309.121 26.88 105.599 122.88 186.241 238.078 186.241h122.88c113.283 0 209.281-80.642 236.163-186.241zM496.902 693.882c84.48 0 153.6-69.12 153.6-153.6 0-86.401-69.12-153.6-153.6-153.6-86.397 0-153.598 67.199-153.598 153.6 0 84.48 67.201 153.6 153.598 153.6zM496.902 448.123c49.922 0 92.16 40.321 92.16 92.16 0 49.92-42.238 92.16-92.16 92.16-51.839 0-92.158-42.24-92.158-92.16 0-51.839 40.319-92.16 92.158-92.16z" />
<glyph unicode="&#xe92a;" glyph-name="tab-bar-favorites" horiz-adv-x="1219" d="M605.004 806.291c-22.372 22.906-52.858 50.539-87.757 75.489-48.134 34.413-116.761 72.556-190.203 72.556-60.163 0-137.118-10.705-200.516-57.551-67.617-49.963-106.684-131.013-106.684-243.011 0-84.040 41.463-158.334 75.384-206.204 35.251-49.752 71.118-82.846 70.83-82.559l0.456-0.453 438.447-422.605 438.326 422.439c-0.063-0.068 36.020 33.231 71.353 83.046 34.016 47.966 75.493 122.264 75.493 206.336 0 111.997-39.068 193.046-106.686 243.009-63.4 46.847-140.351 57.552-200.514 57.552-73.435 0-142.058-38.168-190.176-72.576-34.904-24.958-65.39-52.59-87.752-75.47zM637.562 731.607c34.597 41.191 146.305 148.258 245.37 148.258 106.384 0 232.726-39.236 232.726-226.089 0-118.236-116.117-228.273-124.572-236.285-0.244-0.234-0.4-0.38-0.458-0.439l-385.668-371.668-386.301 372.346c-0.031 0.034-0.131 0.127-0.297 0.283-6.804 6.417-124.046 116.995-124.046 235.763 0 186.857 126.342 226.089 232.728 226.089 99.108 0 210.81-107.023 245.367-148.258 15.96-19.275 49.191-19.275 65.151 0z" />
<glyph unicode="&#xe92b;" glyph-name="tab-bar-home" horiz-adv-x="1147" d="M1116.541 471.642c13.443-11.518 13.443-30.72 1.921-44.159-9.601-13.439-28.799-13.439-42.238-1.921l-71.041 63.361v-378.241c0-86.401-69.12-153.6-153.6-153.6h-552.96c-86.4 0-153.6 67.199-153.6 153.6v378.241l-72.96-63.361c-13.44-11.518-32.64-11.518-42.24 1.921-11.52 13.439-11.52 32.641 1.92 44.159l522.241 458.88c11.518 11.52 28.799 11.52 40.317 0l522.24-458.88zM298.623 18.522h122.88v307.2c0 32.641 26.878 61.44 61.44 61.44h184.32c32.641 0 61.44-28.799 61.44-61.44v-307.2h122.88c49.918 0 92.16 40.321 92.16 92.16v432.001l-368.64 324.479-368.64-324.479v-432.001c0-51.839 40.32-92.16 92.16-92.16zM482.943 18.522h184.32v307.2h-184.32v-307.2z" />
<glyph unicode="&#xe92c;" glyph-name="tab-bar-active-home" horiz-adv-x="1147" d="M1118.462 436.183c11.522 13.439 11.522 32.641-1.921 44.159l-522.24 458.88c-11.518 11.52-28.799 11.52-40.317 0l-522.241-458.88c-13.44-11.518-13.44-30.72-1.92-44.159 9.6-13.439 28.8-13.439 42.24-1.921l72.96 63.361v-378.241c0-86.401 67.2-153.6 153.6-153.6h552.96c84.48 0 153.6 67.199 153.6 153.6v378.241l71.041-63.361c13.439-11.518 32.637-11.518 42.238 1.921zM667.263 334.422v-307.2h-184.32v307.2h184.32z" />
<glyph unicode="&#xe92d;" glyph-name="arrow-left" horiz-adv-x="896" d="M894.2 448c0-26.5-21.52-48.020-48.020-48.020h-678.38l265.4-253.2c19.25-18.312 19.938-48.82 1.625-67.88-18.312-19.188-48.68-19.876-67.88-1.625l-352 336c-9.555 8.925-14.929 21.525-14.929 34.725s5.374 25.6 14.874 34.8l352 336c19.11 18.18 49.51 17.5 67.91-1.7 18.312-19 17.624-49.5-1.625-67.88l-265.4-253.2h680.2c26.425-0.020 46.225-21.62 46.225-48.020z" />
<glyph unicode="&#xe92e;" glyph-name="night-2" d="M664 105.997c16 4.006 28-16 16-27.994-70-90.003-178-142.003-298-142.003-212 0-382 172-382 384 0 240 216 420 454 376 16-2 20-24 4-32-94-54-152-154-152-262 0-187.997 172-331.997 358-296.003zM576 832l-60 24c-4 2-6 4-6 8 0 2 2 4 6 6l60 26 24 60c2 2 4 4 8 4 2 0 4-2 6-4l24-60 59.997-24c4.006-2 6.003-4 6.003-8s-1.997-6-6.003-6l-59.997-26-24-58c-2-4-4-6-8-6-2 0-4 2-6 6l-24 58zM1014.003 526c5.997-4 9.997-8 9.997-14s-4-12-9.997-16l-118.003-48-49.997-120c-4.006-6-8-8-14.003-8s-12 2-16 8l-48 120-120 48c-6.003 4-8 10-8 16s1.997 10 8 14l120 50 48 120c4 6 9.997 8 16 8s9.997-4 14.003-10l49.997-118 118.003-50z" />
<glyph unicode="&#xe92f;" glyph-name="night-1" horiz-adv-x="1280" d="M176 784c0-97.2 78.8-176 176-176 6 0 12 0.4 16.2 0.8 17 1.6 29.4-15.2 18.8-26.4-40.8-43.4-98.8-70.4-163-70.4-123.72 0-224 100.2-224 224 0 123.72 100.28 224 224 224 7.4 0 14.8-0.361 22-1.067 15.2-1.483 17-22.353 4.4-31.173-45-31.88-74.4-84.38-74.4-143.76v0zM550.8 870.9l64.6-23.9c14-5.14 14-24.86 0-30l-64.6-23.9-23.8-64.5c-5.2-14-24.8-14-30 0l-23.8 64.5-64.6 23.9c-14 5.14-14 24.86 0 30l64.6 23.9 23.8 64.54c5.2 13.936 24.8 13.936 30 0l23.8-64.54zM1259.4 367c19.4-17.8 25.8-45.8 16.2-70.4-9.6-24.4-33.2-40.6-59.6-40.6h-64v-224c0-53-43-96-96-96h-512c-53 0-96 43-96 96v224h-64c-26.4 0-51.8 16.2-59.6 40.6-9.6 24.6-3.2 52.6 16.2 70.4l416 384c24.6 22.66 62.2 22.66 86.8 0l416-384zM704 224c0-17.6 14.4-32 32-32h128c17.6 0 32 14.4 32 32v128c0 17.6-14.4 32-32 32h-128c-17.6 0-32-14.4-32-32v-128zM177 295.4c5.14 14 24.8 14 30 0l23.8-64.6 64.6-23.8c14-5.2 14-24.8 0-30l-64.6-23.8-23.8-64.6c-5.2-14-24.86-14-30 0l-23.9 64.6-64.54 23.8c-13.94 5.2-13.94 24.8 0 30l64.54 23.8 23.9 64.6z" />
<glyph unicode="&#xe930;" glyph-name="mondo-logo" d="M376.618 720.494c-112.65-93.686-234.532-338.127-273.995-534.459-1.52-7.516 4.834-18.35 15.698-18.33h99.49c8.778 0 15.52 6.303 16.862 12.672 12.303 58.604 34.71 140.068 61.886 190.766 2.829 5.274 10.298 5.146 11.915-0.271 17.896-58.071 67.254-148.782 102.174-198.062 4.996-7.081 17.622-6.984 21.162 2.801 21.276 58.747 58.039 139.5 96.839 196.424 0.701 1.147 1.741 2.043 2.975 2.565 1.239 0.527 2.606 0.655 3.917 0.369 1.311-0.282 2.499-0.968 3.4-1.961 0.906-0.993 1.48-2.243 1.638-3.574 7.306-57.165 37.898-137.211 66.703-191.544 2.898-5.402 7.485-10.25 14.986-10.25h104.325c12.242 0 19.758 14.034 14.551 23.281-93.199 166.113-132.731 356.994-13.773 518.791 7.194 9.797-1.987 21.631-11.126 19.675-118.467-25.495-218.718-165.063-289.383-298.277-2.377-4.495-9.603-4.982-11.737 0.486-28.178 71.633-38.331 187.63-17.783 276.547 2.506 10.896-12.271 19.384-20.726 12.351zM921.6 588.605c0-39.286-31.846-71.134-71.132-71.134s-71.137 31.848-71.137 71.134c0 39.286 31.852 71.134 71.137 71.134s71.132-31.848 71.132-71.134z" />
<glyph unicode="&#xe931;" glyph-name="enlarge" d="M752.497 506.526c0-16.259 13.184-29.44 29.44-29.44 16.261 0 29.44 13.181 29.44 29.44v235.19h-235.187c-16.261 0-29.44-13.181-29.44-29.44s13.179-29.44 29.44-29.44h133.714l-438.403-428.977v135.613c0 16.261-13.18 29.44-29.44 29.44s-29.44-13.179-29.44-29.44v-235.187h235.19c16.26 0 29.44 13.179 29.44 29.44 0 16.256-13.18 29.44-29.439 29.44h-133.712l438.398 428.973v-135.613zM844.8 856.913h-665.6c-42.416 0-76.8-34.384-76.8-76.8v-664.227c0-42.414 34.384-76.8 76.8-76.8h665.6c42.414 0 76.8 34.386 76.8 76.8v664.227c0 42.416-34.386 76.8-76.8 76.8zM870.4 780.113v-664.227c0-14.136-11.464-25.6-25.6-25.6h-665.6c-14.138 0-25.6 11.464-25.6 25.6v664.227c0 14.138 11.462 25.6 25.6 25.6h665.6c14.136 0 25.6-11.462 25.6-25.6z" />
<glyph unicode="&#xe932;" glyph-name="add-calendar" d="M512 523.97c16.261 0 29.44-13.181 29.44-29.44v-103.116h103.117c16.256 0 29.44-13.179 29.44-29.44s-13.184-29.44-29.44-29.44h-103.117v-103.117c0-16.261-13.179-29.44-29.44-29.44-16.259 0-29.439 13.179-29.439 29.44v103.117h-103.117c-16.259 0-29.44 13.179-29.44 29.44s13.181 29.44 29.44 29.44h103.117v103.116c0 16.259 13.18 29.44 29.439 29.44zM302.704 825.431v-82.825h179.855v82.825c0 16.259 13.18 29.44 29.44 29.44 16.262 0 29.441-13.181 29.441-29.44v-82.825h179.855v82.825c0 16.259 13.179 29.44 29.44 29.44 16.256 0 29.44-13.181 29.44-29.44v-82.825h90.225c28.278 0 51.2-22.923 51.2-51.2v-591.812c0-28.278-22.922-51.2-51.2-51.2h-716.8c-28.277 0-51.2 22.922-51.2 51.2v591.812c0 28.277 22.923 51.2 51.2 51.2h90.224v82.825c0 16.259 13.181 29.44 29.44 29.44s29.44-13.181 29.44-29.44zM721.295 683.726h-179.855v-37.664c0-16.259-13.179-29.44-29.441-29.44-16.26 0-29.44 13.181-29.44 29.44v37.664h-179.855v-37.664c0-16.259-13.18-29.44-29.44-29.44s-29.44 13.181-29.44 29.44v37.664h-82.544v-576.452h701.44v576.452h-82.545v-37.664c0-16.259-13.184-29.44-29.44-29.44-16.261 0-29.44 13.181-29.44 29.44v37.664z" />
</font>
</defs>
</svg>
